<svg width="1734" height="1754" viewBox="0 0 1734 1754" fill="none" xmlns="http://www.w3.org/2000/svg">
<path d="M1208.71 378.138C1195.84 388.121 1183.24 397.809 1170.66 407.52C1156.42 418.514 1142.03 429.32 1128.03 440.602C1117.26 449.276 1107 458.589 1096.48 467.568C1087.08 475.584 1077.63 483.533 1067.6 492.188C1064.08 495.299 1061.08 497.64 1058.26 500.187C1047.68 509.743 1037.07 519.265 1026.65 528.993C1015.84 539.084 1005.06 549.218 994.601 559.668C984.612 569.645 975.004 580.007 965.315 590.282C951.194 605.258 937.011 620.178 923.122 635.367C912.962 646.477 903.063 657.839 893.356 669.348C882.71 681.971 872.164 694.694 862.033 707.73C848.877 724.658 835.62 741.555 823.405 759.158C806.299 783.81 789.636 808.8 773.655 834.194C753.662 865.961 736.065 899.091 720.043 933.059C704.36 966.309 690.386 1000.24 678.354 1034.97C674.831 1045.47 670.875 1055.85 667.878 1066.49C662.313 1086.26 657.293 1106.18 652.095 1126.05C651.685 1127.62 651.651 1129.28 651.589 1131.22C649.299 1143.15 646.36 1154.68 644.533 1166.39C641.148 1188.07 638.253 1209.84 635.483 1231.61C634.274 1241.11 633.476 1250.71 633.191 1260.28C632.479 1284.19 631.466 1308.12 631.906 1332.02C632.292 1353 634.239 1373.96 635.961 1394.9C637.243 1410.48 639.268 1426.01 641.019 1442.08C640.043 1441.5 639.295 1441.23 638.766 1440.72C627.236 1429.71 615.659 1418.75 604.235 1407.63C582.549 1386.52 560.984 1365.29 539.309 1344.18C525.862 1331.08 512.322 1318.07 498.764 1305.09C497.667 1304.04 496.112 1303.46 494.466 1302.96C469.163 1278.25 444.164 1253.25 419.068 1227.64C420.039 1223.57 421.19 1220.12 422.163 1216.63C430.057 1188.27 437.47 1159.77 445.928 1131.58C452.831 1108.58 460.875 1085.92 468.616 1063.17C471.115 1055.83 474.257 1048.7 477.358 1041.22C481.974 1030.2 486.254 1019.41 490.725 1008.69C495.325 997.67 500.112 986.726 504.817 975.747C519.468 947.435 533.42 918.732 548.985 890.931C562.188 867.347 576.899 844.575 591.625 821.885C601.04 807.379 611.594 793.603 621.823 779.636C630.103 768.33 638.525 757.121 647.146 746.073C652.431 739.299 658.199 732.903 663.767 726.351C674.363 713.882 684.869 701.334 695.614 688.994C701.711 681.991 708.034 675.163 714.558 668.555C730.594 652.311 746.724 636.159 762.976 620.132C772.197 611.038 781.578 602.092 791.168 593.388C802.686 582.935 814.332 572.609 826.231 562.595C841.772 549.517 857.295 536.382 873.401 524.021C899.171 504.244 925.179 484.756 951.538 465.773C969.588 452.773 988.406 440.839 1007.53 428.057C1025.08 417.177 1041.84 406.43 1058.91 396.218C1082.55 382.083 1106.35 368.218 1130.23 354.496C1144.77 346.139 1159.6 338.269 1174.29 330.18C1184.04 324.933 1193.67 319.472 1203.54 314.481C1227.45 302.397 1251.23 290.022 1275.5 278.695C1313.23 261.08 1351.18 243.88 1389.33 227.185C1418.41 214.464 1447.83 202.524 1477.31 190.754C1500.2 181.612 1523.42 173.269 1546.77 164.334C1547.36 164.412 1547.67 164.727 1548.22 165.276C1537.81 171.473 1527.15 177.406 1516.52 183.398C1489.35 198.716 1462.03 213.789 1435.08 229.477C1411.98 242.92 1389.04 256.666 1366.5 271.024C1337.45 289.532 1308.78 308.643 1280.13 327.769C1263.41 338.929 1247.01 350.57 1230.54 362.107C1223.26 367.211 1216.17 372.595 1208.71 378.138Z" fill="white"/>
<path d="M415.247 933.423C430.21 939.866 444.78 946.211 459.362 952.528C475.868 959.679 492.284 967.053 508.931 973.86C521.73 979.094 534.839 983.568 547.786 988.442C559.347 992.792 570.876 997.227 583.298 1001.82C587.722 1003.39 591.223 1004.89 594.815 1006.13C608.294 1010.77 621.759 1015.46 635.311 1019.87C649.371 1024.46 663.454 1029 677.658 1033.11C691.221 1037.03 704.937 1040.43 718.615 1043.94C738.55 1049.07 758.467 1054.27 778.477 1059.09C793.115 1062.61 807.846 1065.78 822.614 1068.72C838.81 1071.94 855.046 1075.02 871.354 1077.58C892.533 1080.92 913.733 1084.36 935.048 1086.54C964.897 1089.6 994.828 1092.1 1024.78 1093.82C1062.26 1095.97 1099.76 1095.36 1137.25 1092.96C1173.93 1090.62 1210.39 1086.45 1246.61 1080.19C1257.51 1078.2 1268.5 1076.65 1279.27 1074.13C1299.26 1069.44 1319.13 1064.21 1339.03 1059.15C1340.61 1058.76 1342.08 1057.98 1343.81 1057.09C1355.36 1053.33 1366.87 1050.33 1378 1046.28C1398.62 1038.76 1419.07 1030.77 1439.47 1022.67C1448.38 1019.13 1457.16 1015.19 1465.68 1010.82C1486.95 999.883 1508.39 989.2 1529.1 977.263C1547.28 966.785 1564.69 954.945 1582.19 943.319C1595.21 934.663 1607.82 925.387 1621.05 916.083C1621.01 917.216 1621.13 918.004 1620.95 918.711C1616.88 934.127 1612.88 949.561 1608.67 964.937C1600.67 994.123 1592.51 1023.26 1584.5 1052.45C1579.54 1070.55 1574.7 1088.69 1569.88 1106.84C1569.49 1108.3 1569.74 1109.94 1570.1 1111.63C1560.7 1145.72 1550.9 1179.69 1540.62 1214.04C1536.58 1215.16 1533.01 1215.81 1529.48 1216.65C1500.84 1223.45 1472.3 1230.74 1443.54 1236.96C1420.07 1242.03 1396.34 1245.95 1372.69 1250.17C1365.05 1251.53 1357.29 1252.22 1349.24 1253.13C1337.36 1254.41 1325.85 1255.88 1314.31 1257.15C1302.43 1258.45 1290.54 1259.55 1278.65 1260.74C1246.79 1261.6 1214.91 1263.26 1183.05 1263.07C1156.03 1262.91 1128.98 1261.04 1102 1259.12C1084.75 1257.89 1067.59 1255.31 1050.42 1253.11C1036.52 1251.32 1022.63 1249.37 1008.79 1247.16C1000.31 1245.81 991.922 1243.85 983.496 1242.15C967.458 1238.9 951.395 1235.77 935.399 1232.33C926.32 1230.37 917.287 1228.14 908.348 1225.62C886.377 1219.44 864.441 1213.12 842.555 1206.64C830.136 1202.97 817.769 1199.08 805.515 1194.89C790.796 1189.86 776.127 1184.66 761.609 1179.08C742.648 1171.8 723.646 1164.56 705.04 1156.44C675.27 1143.44 645.638 1130.09 616.279 1116.19C596.173 1106.67 576.629 1095.97 556.195 1085.41C538.188 1075.3 520.68 1065.83 503.485 1055.82C479.686 1041.96 456.042 1027.82 432.487 1013.55C418.141 1004.86 404.087 995.689 389.902 986.734C380.599 980.741 371.161 974.947 362.02 968.717C339.885 953.63 317.556 938.795 295.911 923.028C262.249 898.506 228.85 873.606 195.793 848.275C170.602 828.973 145.925 808.985 121.373 788.871C102.303 773.248 83.7778 756.959 64.6696 740.837C64.4518 740.281 64.575 739.854 64.7906 739.107C75.248 745.227 85.5964 751.694 95.9809 758.102C122.524 774.483 148.922 791.107 175.685 807.121C198.618 820.842 221.743 834.282 245.206 847.07C275.451 863.555 306.04 879.417 336.633 895.254C354.484 904.494 372.602 913.224 390.66 922.06C398.649 925.969 406.789 929.57 415.247 933.423Z" fill="white"/>
<path d="M1363.25 1287.5C1361.18 1271.34 1359.21 1255.57 1357.22 1239.81C1354.96 1221.96 1352.95 1204.08 1350.32 1186.28C1348.31 1172.6 1345.48 1159.05 1343.08 1145.42C1340.93 1133.26 1338.87 1121.08 1336.5 1108.05C1335.6 1103.44 1335.1 1099.66 1334.34 1095.94C1331.46 1081.98 1328.64 1068.01 1325.53 1054.09C1322.32 1039.66 1319.05 1025.23 1315.35 1010.91C1311.81 997.244 1307.75 983.708 1303.81 970.148C1298.06 950.384 1292.39 930.594 1286.34 910.922C1281.92 896.531 1277.14 882.238 1272.14 868.035C1266.66 852.459 1261.04 836.919 1254.94 821.577C1247.02 801.654 1239.18 781.661 1230.2 762.207C1217.62 734.964 1204.53 707.931 1190.75 681.281C1173.5 647.942 1153.87 615.976 1132.72 584.944C1112.01 554.568 1089.85 525.319 1066.01 497.338C1058.75 488.979 1051.81 480.309 1044.15 472.328C1029.94 457.509 1015.31 443.083 1000.82 428.528C999.679 427.379 998.259 426.504 996.618 425.468C987.499 417.446 979.05 409.066 969.888 401.557C952.914 387.645 935.623 374.115 918.26 360.688C910.682 354.827 902.816 349.275 894.709 344.175C874.462 331.439 854.347 318.432 833.525 306.693C815.247 296.389 796.189 287.438 777.273 278.308C763.19 271.512 748.784 265.386 734.04 258.745C735.032 258.196 735.648 257.691 736.351 257.491C751.688 253.135 767.007 248.715 782.384 244.506C811.571 236.516 840.804 228.693 869.996 220.717C888.105 215.77 906.179 210.692 924.246 205.59C925.709 205.177 926.992 204.128 928.262 202.966C962.388 193.684 996.61 184.812 1031.4 176.162C1034.42 179.065 1036.81 181.804 1039.33 184.415C1059.77 205.597 1080.58 226.437 1100.58 248.02C1116.91 265.631 1132.37 284.056 1148.04 302.26C1153.11 308.139 1157.66 314.46 1162.54 320.928C1169.69 330.492 1176.83 339.653 1183.79 348.939C1190.96 358.493 1197.97 368.168 1205.05 377.79C1222.02 404.773 1239.69 431.352 1255.76 458.863C1269.39 482.202 1281.56 506.427 1293.65 530.624C1301.38 546.094 1307.9 562.175 1314.76 578.074C1320.3 590.943 1325.69 603.886 1330.85 616.918C1334 624.907 1336.59 633.123 1339.42 641.243C1344.79 656.699 1350.28 672.116 1355.47 687.634C1358.41 696.441 1361.09 705.352 1363.48 714.326C1369.35 736.383 1375.1 758.476 1380.67 780.61C1383.83 793.169 1386.79 805.791 1389.43 818.47C1392.6 833.697 1395.59 848.971 1398.19 864.305C1401.58 884.331 1405.03 904.371 1407.52 924.52C1411.5 956.76 1415.11 989.057 1418.11 1021.4C1420.16 1043.55 1420.91 1065.82 1422.23 1088.79C1422.71 1109.43 1423.48 1129.32 1423.62 1149.22C1423.82 1176.76 1423.7 1204.3 1423.42 1231.84C1423.25 1248.62 1422.52 1265.38 1422.04 1282.15C1421.62 1293.21 1421.45 1304.28 1420.74 1315.32C1419.04 1342.06 1417.65 1368.83 1415.11 1395.48C1411.15 1436.94 1406.74 1478.37 1401.79 1519.72C1398.01 1551.23 1393.38 1582.65 1388.58 1614.02C1384.85 1638.39 1380.27 1662.63 1376.14 1687.29C1375.77 1687.76 1375.34 1687.87 1374.59 1688.06C1374.52 1675.95 1374.82 1663.75 1375.04 1651.55C1375.61 1620.36 1376.47 1589.18 1376.62 1557.99C1376.74 1531.26 1376.53 1504.52 1375.58 1477.81C1374.35 1443.39 1372.42 1408.99 1370.46 1374.59C1369.32 1354.52 1367.6 1334.49 1366 1314.45C1365.3 1305.58 1364.25 1296.74 1363.25 1287.5Z" fill="white"/>
<circle cx="1035.5" cy="864.5" r="102.5" fill="white"/>
</svg>
