<svg width="1861" height="1763" viewBox="0 0 1861 1763" fill="none" xmlns="http://www.w3.org/2000/svg">
<path d="M1299.09 1668.67C1298.47 1667.4 1297.8 1665.86 1297.81 1664.33C1297.97 1648.39 1298.33 1632.45 1298.45 1616.52C1298.74 1577.59 1299.09 1538.65 1299.1 1499.72C1299.1 1484.35 1298.38 1468.96 1297.74 1453.59C1296.95 1434.83 1296.08 1416.07 1294.88 1397.33C1293.45 1374.9 1291.97 1352.47 1289.89 1330.1C1287.42 1303.44 1284.3 1276.85 1281.47 1250.34C1268.66 1251.88 1255.97 1253.54 1243.24 1254.89C1228.45 1256.46 1213.64 1257.9 1198.81 1259.12C1189.63 1259.87 1180.4 1260.37 1171.18 1260.53C1148.08 1260.92 1124.97 1261.49 1101.88 1261.15C1082.12 1260.86 1062.32 1259.98 1042.62 1258.33C1007.08 1255.36 971.553 1251.91 936.507 1244.98C905.874 1238.93 875.122 1233.3 844.788 1225.96C814.633 1218.67 784.772 1210.02 755.085 1200.97C730.968 1193.62 706.984 1185.6 683.504 1176.44C648.539 1162.79 614.07 1147.88 579.384 1133.51C578.047 1132.96 576.648 1132.56 574.809 1131.55C574.55 1129.4 574.584 1127.74 574.994 1126.17C580.192 1106.3 585.212 1086.38 590.777 1066.61C593.774 1055.96 597.73 1045.59 601.637 1035.06C610.887 1037.53 619.697 1040.26 628.627 1042.51C656.526 1049.53 684.318 1057.09 712.433 1063.14C755.574 1072.41 798.958 1080.58 842.905 1085.2C869.064 1087.95 895.225 1090.74 921.437 1092.89C937.867 1094.23 954.392 1094.96 970.876 1094.99C994.916 1095.02 1018.98 1094.65 1042.99 1093.57C1065.27 1092.56 1087.55 1090.99 1109.72 1088.6C1130.86 1086.32 1151.93 1083.09 1172.9 1079.5C1191.56 1076.3 1210.05 1072.15 1228.57 1068.18C1235.63 1066.67 1242.55 1064.51 1250.29 1062.45C1243.41 1034.66 1236.98 1007.32 1229.82 980.164C1223.68 956.876 1217.13 933.676 1209.97 910.685C1203.28 889.209 1195.8 867.968 1188.19 846.793C1180.94 826.594 1173.59 806.4 1165.37 786.583C1149.5 748.327 1132.21 710.697 1112.41 674.29C1102.55 656.162 1092.42 638.162 1081.8 620.474C1071.57 603.435 1060.8 586.7 1049.78 570.161C1042.49 559.216 1034.36 548.818 1026.53 538.24C1021.97 532.085 1017.3 526.006 1012.56 519.987C1005.29 510.749 997.924 501.592 990.847 492.016C1000.53 483.652 1009.98 475.703 1019.38 467.686C1029.9 458.707 1040.16 449.395 1050.92 440.721C1064.93 429.438 1079.32 418.633 1093.56 407.639C1106.14 397.927 1118.74 388.24 1131.33 378.542C1139.03 390.492 1147.09 402.233 1154.36 414.441C1166.33 434.535 1178.13 454.751 1189.4 475.242C1207.13 507.456 1222.32 540.923 1236.7 574.737C1243.01 589.582 1248.41 604.821 1254.01 619.958C1259.18 633.903 1264.64 647.778 1268.95 661.991C1277.32 689.534 1285.75 717.098 1292.72 745.013C1301.17 778.895 1308.76 813.027 1315.56 847.283C1320.51 872.267 1323.76 897.599 1327.41 922.829C1330.08 941.358 1332.43 959.944 1334.45 978.556C1336.04 993.215 1336.88 1007.95 1338.08 1022.66C1338.35 1026.06 1338.75 1029.46 1339.14 1033.34C1378.95 1017.33 1417.41 999.04 1454.47 977.599C1491.52 956.165 1526.44 931.745 1561.15 906.136C1559.45 912.985 1557.75 919.833 1556.05 926.683C1548.67 956.504 1541.32 986.336 1533.89 1016.15C1527.08 1043.44 1520.14 1070.71 1513.33 1098C1506.71 1124.51 1500.2 1151.03 1493.63 1177.55C1491.64 1185.55 1489.81 1193.61 1487.47 1201.51C1486.94 1203.28 1484.78 1205.39 1482.99 1205.84C1447.56 1214.81 1412.09 1223.61 1376.61 1232.33C1365.77 1235 1354.85 1237.34 1343.64 1239.9C1343.2 1254.47 1343.02 1269.53 1342.24 1284.55C1341.07 1307.21 1339.53 1329.84 1338.07 1352.48C1336.96 1369.52 1335.97 1386.58 1334.47 1403.58C1332.89 1421.47 1330.78 1439.31 1328.87 1457.17C1326.76 1476.97 1324.92 1496.81 1322.43 1516.56C1319.31 1541.24 1315.84 1565.88 1312.17 1590.49C1308.37 1615.99 1304.15 1641.43 1300.53 1666.86C1300.41 1667.35 1299.88 1667.88 1299.09 1668.67Z" fill="white"/>
<path d="M1131.6 378.247C1118.73 388.23 1106.13 397.918 1093.55 407.63C1079.31 418.623 1064.92 429.429 1050.91 440.711C1040.15 449.385 1029.89 458.698 1019.37 467.677C1009.97 475.694 1000.52 483.643 990.489 492.297C986.973 495.408 983.969 497.75 981.151 500.296C970.573 509.853 959.962 519.375 949.542 529.102C938.733 539.194 927.951 549.328 917.49 559.777C907.501 569.755 897.892 580.117 888.204 590.392C874.083 605.367 859.9 620.288 846.011 635.476C835.851 646.587 825.952 657.948 816.244 669.458C805.598 682.08 795.053 694.804 784.922 707.839C771.765 724.768 758.509 741.665 746.294 759.268C729.188 783.92 712.525 808.91 696.543 834.303C676.551 866.07 658.953 899.201 642.932 933.169C627.249 966.419 613.274 1000.35 601.243 1035.08C597.72 1045.58 593.764 1055.96 590.767 1066.6C585.201 1086.37 580.182 1106.29 574.984 1126.16C574.574 1127.73 574.54 1129.39 574.478 1131.33C572.188 1143.26 569.248 1154.79 567.421 1166.5C564.037 1188.18 561.141 1209.94 558.372 1231.72C557.163 1241.22 556.365 1250.82 556.08 1260.39C555.368 1284.3 554.355 1308.23 554.795 1332.13C555.18 1353.11 557.128 1374.07 558.85 1395.01C560.132 1410.59 562.156 1426.11 563.907 1442.19C562.932 1441.61 562.184 1441.34 561.655 1440.83C550.125 1429.82 538.548 1418.86 527.123 1407.74C505.438 1386.63 483.873 1365.4 462.197 1344.29C448.751 1331.19 435.21 1318.18 421.653 1305.2C420.555 1304.14 419.001 1303.57 417.355 1303.07C392.052 1278.36 367.053 1253.36 341.956 1227.75C342.927 1223.68 344.079 1220.23 345.052 1216.74C352.946 1188.38 360.358 1159.88 368.817 1131.69C375.719 1108.69 383.764 1086.03 391.504 1063.28C394.004 1055.94 397.146 1048.81 400.246 1041.32C404.863 1030.31 409.142 1019.52 413.613 1008.8C418.214 997.78 423.001 986.835 427.706 975.856C442.357 947.544 456.309 918.841 471.873 891.04C485.077 867.456 499.788 844.684 514.513 821.995C523.928 807.488 534.482 793.713 544.711 779.745C552.992 768.439 561.414 757.23 570.034 746.182C575.319 739.409 581.088 733.012 586.656 726.46C597.252 713.991 607.758 701.444 618.502 689.103C624.6 682.1 630.923 675.272 637.447 668.664C653.482 652.421 669.612 636.269 685.864 620.242C695.086 611.148 704.467 602.201 714.057 593.498C725.575 583.044 737.221 572.719 749.12 562.705C764.661 549.627 780.184 536.492 796.29 524.131C822.06 504.353 848.068 484.866 874.426 465.883C892.477 452.883 911.295 440.948 930.42 428.166C947.969 417.287 964.726 406.54 981.803 396.328C1005.44 382.193 1029.24 368.327 1053.12 354.605C1067.66 346.248 1082.49 338.378 1097.18 330.289C1106.93 325.042 1116.56 319.581 1126.43 314.591C1150.34 302.506 1174.12 290.131 1198.39 278.805C1236.12 261.19 1274.07 243.989 1312.22 227.295C1341.29 214.573 1370.72 202.633 1400.2 190.863C1423.09 181.721 1446.31 173.378 1469.66 164.444C1470.25 164.522 1470.56 164.836 1471.11 165.386C1460.7 171.582 1450.04 177.515 1439.41 183.508C1412.24 198.826 1384.92 213.899 1357.97 229.586C1334.87 243.029 1311.93 256.776 1289.39 271.134C1260.34 289.642 1231.67 308.752 1203.01 327.878C1186.3 339.038 1169.9 350.679 1153.43 362.216C1146.15 367.321 1139.06 372.705 1131.6 378.247Z" fill="url(#paint0_linear_251_35)"/>
<path d="M400.245 1041.32C379.806 1029.44 359.576 1017.37 339.446 1005.13C324.952 996.321 310.469 987.481 296.202 978.311C281.493 968.856 267.024 959.027 252.502 949.283C239.587 940.618 226.663 931.961 213.892 923.087C203.355 915.765 193.044 908.117 182.616 900.637C172.983 893.728 163.258 886.946 153.703 879.931C145.431 873.858 137.367 867.501 129.162 861.334C120.056 854.491 110.816 847.823 101.782 840.886C94.3934 835.212 87.2816 829.179 79.9382 823.445C72.2332 817.428 64.3334 811.661 56.6419 805.628C50.9716 801.18 45.5459 796.422 39.9278 791.906C30.8881 784.64 21.737 777.512 12.7198 770.217C8.76432 767.018 5.02283 763.554 0.87421 759.9C0.878569 759.275 1.19284 758.961 1.7428 758.411C28.0896 773.917 54.1093 789.812 80.3427 805.347C98.9265 816.352 117.514 827.408 136.601 837.494C180.466 860.675 224.409 883.731 268.77 905.94C294.809 918.977 321.588 930.568 348.257 942.304C373.171 953.267 398.378 963.565 423.462 974.14C424.641 974.638 425.884 974.985 427.401 975.628C423 986.833 418.213 997.778 413.612 1008.8C409.141 1019.51 404.862 1030.31 400.245 1041.32Z" fill="white"/>
<path d="M1096.88 329.982C1082.48 338.381 1067.66 346.251 1053.12 354.608C1029.24 368.33 1005.44 382.196 981.8 396.331C964.723 406.543 947.966 417.29 930.691 427.871C920.133 418.208 910.271 408.108 899.688 398.83C886.394 387.176 872.821 375.79 858.792 365.039C844.633 354.187 829.782 344.235 815.211 333.922C780.459 309.327 743.474 288.565 704.995 270.483C686.636 261.856 667.861 254.112 649.278 245.96C648.311 245.535 647.376 245.036 645.245 243.995C652.971 241.559 659.454 239.361 666.027 237.475C678.148 233.998 690.337 230.754 702.471 227.322C724.708 221.032 746.935 214.712 769.146 208.337C783.592 204.191 797.983 199.856 812.433 195.73C835.129 189.248 857.875 182.945 880.56 176.426C898.725 171.206 916.85 165.842 934.95 160.398C939.806 158.938 943.49 159.032 947.424 163.296C956.793 173.449 966.937 182.881 976.599 192.77C988.423 204.871 1000.18 217.037 1011.76 229.371C1021.14 239.351 1030.35 249.486 1039.36 259.798C1050.15 272.158 1060.8 284.644 1071.21 297.329C1079.89 307.92 1088.14 318.877 1096.88 329.982Z" fill="white"/>
<path d="M1045.49 913.887C1039.32 921.975 1034.29 930.645 1027.36 937.347C1012.28 951.926 994.285 961.709 973.248 964.981C946.958 969.069 922.559 964.399 900.226 949.42C879.348 935.418 865.098 916.535 858.101 892.513C853.033 875.113 852.815 857.393 857.224 839.676C862.294 819.301 872.9 802.19 888.398 788.341C903.696 774.67 921.693 766.153 942.215 763.485C967.989 760.135 992.013 765.535 1013.32 780.119C1029.3 791.057 1041.69 805.653 1049.61 823.688C1056.16 838.622 1058.74 854.278 1057.96 870.436C1057.27 884.845 1053.24 898.468 1046.68 911.329C1046.32 912.047 1046.07 912.826 1045.49 913.887Z" fill="white"/>
<defs>
<linearGradient id="paint0_linear_251_35" x1="384.927" y1="1271.09" x2="1480.87" y2="175.148" gradientUnits="userSpaceOnUse">
<stop stop-color="#F70602"/>
<stop offset="1" stop-color="white"/>
</linearGradient>
</defs>
</svg>
