<svg width="1457" height="1361" viewBox="0 0 1457 1361" fill="none" xmlns="http://www.w3.org/2000/svg">
<path d="M842.981 968.671C865.608 991.543 888.032 1014.12 910.309 1036.84C912.985 1039.57 915.671 1040.61 919.458 1040.61C1036.25 1040.52 1153.03 1040.57 1269.82 1040.42C1274.96 1040.41 1278.54 1041.82 1281.94 1045.57C1286.7 1050.84 1292.02 1055.59 1297.11 1060.57C1296.95 1060.98 1296.78 1061.38 1296.62 1061.79C1294.89 1061.79 1293.17 1061.79 1291.44 1061.79C1247.29 1061.87 1203.14 1061.93 1158.99 1062.04C1072.03 1062.26 985.069 1062.49 898.109 1062.84C894.267 1062.85 891.772 1061.78 889.367 1058.69C850.662 1009.04 811.84 959.486 773.015 909.931C770.484 906.702 767.709 903.664 764.566 899.972C770.596 899.552 774.981 899.571 779.564 904.366C800.278 926.043 821.618 947.123 842.981 968.671Z" fill="#E81B1D"/>
<path d="M1081.2 389.858C1092.36 364.174 1099.64 337.276 1105.14 309.914C1106.73 302.004 1110.25 296.346 1116.01 290.893C1186.24 224.387 1256.27 157.664 1326.65 90.8396C1327.43 90.5642 1327.82 90.7146 1328.07 91.4333C1307.02 127.069 1284.75 161.556 1261.69 195.534C1244.87 220.315 1227.66 244.812 1207.93 267.432C1196.05 281.052 1181.85 292.173 1168.25 303.863C1138.64 329.308 1112.52 358.197 1085.36 386.071C1084.09 387.38 1082.77 388.654 1081.2 389.858Z" fill="#FDD600"/>
<path d="M422.996 964.852C347.536 1039.04 272.27 1112.92 197.276 1187.07C193.285 1191.02 189.743 1192.3 184.612 1191.95C174.701 1191.28 164.777 1191.88 154.336 1192.89C155.07 1190.28 156.712 1189.34 157.957 1188.19C214.567 1136.04 271.317 1084.03 327.767 1031.71C345.866 1014.93 362.939 997.046 380.941 980.159C392.714 969.116 403.584 957.153 415.554 946.37C426.356 936.64 436.267 926.04 446.838 916.094C459.115 904.544 470.635 892.183 483.022 880.759C490.717 873.662 498.087 866.274 505.426 858.842C507.019 857.23 508.617 856.894 510.686 856.903C525.516 856.96 540.346 856.935 555.176 856.934C556.509 856.933 557.861 856.771 559.169 856.944C560.517 857.122 562.062 854.663 563.025 856.854C563.839 858.706 563.289 860.896 561.767 862.372C556.869 867.122 551.938 871.274 544.087 869.933C538.906 869.048 533.39 870.274 528.135 869.638C521.496 868.833 517.114 871.576 512.617 876.07C482.955 905.709 453.064 935.118 422.996 964.852Z" fill="#FAFAF7"/>
<path d="M421.459 1153.81C387.338 1181.26 353.156 1208.12 319.017 1235.04C297.954 1251.65 277.065 1268.48 255.904 1284.97C225.512 1308.64 191.224 1325.11 155.363 1338.58C155.091 1338.68 154.724 1338.54 153.293 1337.39C160.832 1330.26 168.553 1323.31 175.881 1315.96C217.427 1274.33 258.898 1232.62 300.318 1190.86C302.784 1188.37 305.333 1187.32 308.811 1186.68C346.398 1179.74 383.311 1170.47 418.262 1153.56C418.959 1153.54 419.255 1153.44 419.654 1153.01C419.964 1152.71 420.119 1152.59 420.552 1152.38C421.025 1152.61 421.221 1152.93 421.459 1153.81Z" fill="#FCD500"/>
<path d="M1419.9 990.753C1432.37 990.753 1444.35 990.753 1456.64 990.753C1455.27 996.276 1452.24 1000.34 1448.47 1003.91C1437.57 1014.24 1423.88 1018.96 1409.79 1022.54C1390.85 1027.36 1371.54 1029.74 1351.97 1029.75C1290.51 1029.77 1229.04 1029.68 1167.57 1029.89C1161.9 1029.91 1157.66 1028.87 1154.6 1023.9C1153.27 1021.73 1151.35 1019.91 1149.59 1017.8C1151.69 1016.52 1153.38 1017.02 1154.96 1017.01C1178.28 1016.97 1201.61 1016.89 1224.93 1017.08C1228.98 1017.11 1231.68 1015.92 1234.26 1012.81C1239.56 1006.39 1245.4 1000.43 1250.79 994.081C1252.93 991.553 1255.2 990.679 1258.48 990.685C1312.12 990.781 1365.76 990.753 1419.9 990.753Z" fill="#E9991B"/>
<path d="M130.347 1333.2C110.396 1345.07 89.5882 1354.15 67.4336 1360.94C74.3364 1352.74 81.2175 1344.53 88.1455 1336.35C124.113 1293.92 160.095 1251.49 196.052 1209.05C197.003 1207.92 197.557 1206.87 199.531 1207.03C226.773 1209.27 253.369 1206.53 278.952 1196.35C279.063 1196.3 279.255 1196.46 278.296 1196.06C269.384 1205.51 260.722 1215.92 250.819 1224.97C217.636 1255.3 185.65 1286.89 152.529 1317.28C145.877 1323.38 138.305 1328.26 130.347 1333.2Z" fill="#FCD500"/>
<path d="M463.827 432.815C402.604 421.004 341.801 409.267 280.998 397.527C265.957 394.623 250.913 391.736 235.884 388.77C233.655 388.33 231.505 387.491 229.371 386.514C243.607 385.675 257.756 387.084 271.926 387.335C286.737 387.597 301.536 388.495 316.344 388.993C358.94 390.425 401.538 391.769 444.134 393.202C470.749 394.097 497.362 395.073 523.975 396.048C530.128 396.274 536.273 396.699 542.426 396.925C544.986 397.019 545.432 398.027 543.985 399.958C534.029 413.238 524.017 426.477 514.087 439.777C512.339 442.118 510.22 441.815 507.836 441.347C493.312 438.497 478.778 435.702 463.827 432.815Z" fill="#E51B1D"/>
<path d="M1056.95 449.984C1061.84 443.505 1066.84 437.274 1072.06 431.225C1074.03 428.933 1075.37 426.856 1074.14 423.692C1070.54 414.422 1073.97 408.484 1081.51 401.975C1140.4 351.181 1198.8 299.816 1257.34 248.624C1258.34 247.749 1259.3 246.828 1260.43 245.599C1261.59 246.708 1260.54 247.805 1259.89 248.887C1232.28 294.629 1203.67 339.673 1168.34 380.021C1154.84 395.427 1139.66 408.394 1120.88 417.358C1099.31 427.657 1078.37 439.265 1056.95 449.984Z" fill="#FDD600"/>
<path d="M1149.9 1004.76C1079.09 1004.76 1008.78 1004.74 938.473 1004.8C935.503 1004.8 933.185 1004.25 930.888 1002.07C885.423 958.978 839.864 915.986 794.376 872.919C793.197 871.803 790.951 871.193 791.521 868.763C792.314 865.375 794.181 865.019 797.551 867.696C840.85 902.088 884.144 936.486 927.439 970.883C928.352 971.608 929.265 972.333 930.181 973.054C936.719 978.202 942.558 985.422 949.986 987.928C957.78 990.557 967.099 988.74 975.751 988.742C1062.89 988.76 1150.02 988.753 1237.16 988.753C1238.94 988.753 1240.72 988.753 1243.97 988.753C1238.49 994.524 1233.95 999.457 1229.21 1004.2C1227.99 1005.43 1226 1004.73 1224.37 1004.74C1199.71 1004.77 1175.06 1004.76 1149.9 1004.76Z" fill="#E8681B"/>
<path d="M524.765 644.294C516.353 649.842 515.71 654.407 521.981 661.698C524.151 664.221 526.357 666.743 527.744 669.802C530.316 675.469 528.373 681.598 523.362 683.937C518.241 686.328 511.732 683.844 509.01 678.526C506.231 673.098 506.924 667.575 508.428 661.602C508.392 660.824 508.245 660.493 507.766 660.304C501.084 666.502 501.01 673.737 503.469 681.578C504.752 685.669 507.13 689.448 506.936 693.991C506.699 699.513 505.06 700.464 496.472 699.76C492.928 699.469 491.199 696.719 492.112 692.511C492.568 690.406 493.33 688.365 493.999 686.309C496.201 679.543 495.638 673.401 489.618 668.779C486.239 666.185 486.947 662.662 487.164 658.696C483.824 660.803 483.412 663.621 483.513 666.549C483.558 667.845 484.056 669.147 484.474 670.405C485.636 673.909 487.5 677.658 482.43 679.613C478.95 680.955 475.747 678.079 474.375 672.77C473.305 668.63 474.354 664.953 476.482 661.343C479.216 656.706 480.725 651.911 476.194 647.009C478.012 654.485 473.392 659.388 469.739 664.737C466.101 670.065 467.406 675.514 469.852 680.881C472.232 686.105 476.187 690.227 479.55 694.764C480.444 695.97 481.638 697.316 481.09 698.792C480.412 700.623 478.496 699.559 477.135 699.728C475.823 699.891 474.47 699.691 473.143 699.779C469.89 699.994 467.575 699.99 467.875 695.256C468.207 690.033 463.506 687.32 460.097 684.261C456.509 681.041 454.456 677.682 457.322 672.597C457.303 671.946 457.207 671.646 456.951 671.47C455.585 672.52 454.326 673.345 453.257 674.369C447.934 679.47 447.863 681.018 452.387 686.984C454.395 689.633 456.628 692.174 457.618 695.432C458.436 698.123 458.065 699.975 454.495 699.806C450.504 699.617 446.492 699.634 442.5 699.804C439.487 699.933 438.611 698.622 440.35 696.41C445.729 689.563 442.841 684.222 437.941 678.75C433.594 673.896 433.662 672.917 436.075 666.685C432.954 667.171 431.684 668.937 431.41 671.591C431.184 673.778 431.704 675.845 432.453 677.929C435.536 686.509 434.421 689.394 426.493 693.67C423.561 695.251 420.787 697.015 418.296 700.381C413.925 691.113 409.884 682.429 405.717 673.805C404.914 672.142 405.605 671.413 406.8 670.562C415.479 664.386 424.145 658.191 432.797 651.977C434.281 650.91 435.74 650.879 437.495 651.322C441.847 652.421 446.319 653.073 450.628 654.306C454.004 655.272 455.454 654.531 455.957 650.917C456.782 644.991 458.134 639.14 459.114 633.232C459.695 629.728 461.505 628.403 465.004 628.99C487.796 632.818 510.756 632.583 533.732 631.685C536.597 631.573 538.705 632.308 540.808 634.374C558.88 652.122 577.043 669.778 595.253 687.385C597.16 689.229 598.429 691.195 598.589 693.808C598.651 694.833 599.473 696.288 597.674 696.655C595.859 697.026 595.944 695.631 595.907 694.459C595.823 691.793 594.509 689.724 592.435 687.693C591.917 687.527 591.709 687.537 591.479 687.858C591.568 689.328 591.823 690.494 591.757 691.641C591.632 693.788 592.72 696.916 589.197 697.075C586.358 697.203 582.397 699.58 581.139 694.295C580.866 693.148 579.745 691.909 578.679 691.291C571.737 687.265 570.805 681.133 572.335 673.612C572.321 672.961 572.301 672.744 571.956 672.507C565.208 678.585 564.58 683.142 569.161 690.425C569.692 691.27 570.269 692.087 570.761 692.953C572.559 696.118 572.486 698.341 568.008 698.287C567.512 698.281 567.014 698.391 566.516 698.4C563.535 698.455 559.957 699.537 557.731 698.263C555.28 696.859 557.623 693.096 557.145 690.37C556.798 688.391 556.765 686.229 555.559 684.659C549.985 677.401 547.399 669.515 550.711 659.614C543.811 665.578 542.142 674.187 545.438 682.048C547.095 685.999 549.703 689.553 550.041 694.073C550.331 697.955 549.346 700.134 544.944 699.773C542.136 699.543 539.291 699.775 536.464 699.759C531.578 699.731 530.264 698.299 531.44 693.35C532.278 689.827 533.662 686.395 535.13 683.067C538.819 674.706 537.237 667.6 530.649 661.36C526.194 657.141 522.097 652.658 525.086 645.333C525.092 644.729 525.087 644.517 524.765 644.294Z" fill="#E51B1D"/>
<path d="M1285.81 978.685C1205.5 978.7 1125.68 978.698 1045.85 978.772C1043.12 978.775 1041.12 978.18 1039.51 975.854C1037.74 973.321 1035.63 971.029 1032.93 967.717C1035.8 967.717 1037.55 967.717 1039.3 967.717C1066.3 967.717 1093.29 967.665 1120.29 967.785C1123.55 967.799 1125.89 966.91 1128.14 964.547C1133.2 959.25 1137.72 952.209 1143.99 949.649C1150.45 947.016 1158.73 948.771 1166.2 948.768C1232.2 948.742 1298.19 948.753 1364.18 948.753C1366.01 948.753 1367.84 948.753 1370 948.753C1369.63 951.081 1367.89 952.16 1366.57 953.408C1354.94 964.417 1340.52 969.852 1325.35 973.584C1312.55 976.736 1299.47 978.152 1285.81 978.685Z" fill="#E9991B"/>
<path d="M1337.98 0.4884C1332.99 11.1728 1326.76 20.8079 1320.82 30.5937C1295.68 71.9986 1269.96 113.016 1239.08 150.512C1234.94 155.537 1230.42 160.171 1225.69 164.636C1187.04 201.096 1148.44 237.603 1109.81 274.092C1108.85 275.003 1107.85 275.875 1105.97 277.578C1106.28 267.628 1104.77 259.438 1112.4 250.993C1187.51 167.815 1262.05 84.1115 1337.01 0.355374C1337.5 0.147809 1337.73 0.142133 1337.98 0.4884Z" fill="#FCD500"/>
<path d="M1310.74 1070.75C1313.33 1070.75 1315.44 1070.75 1318.82 1070.75C1309.3 1060.51 1300.57 1051.11 1291.28 1041.12C1339.9 1041.12 1387.73 1041.12 1435.95 1041.12C1435 1044.02 1432.85 1046.03 1430.82 1048.06C1417.76 1061.2 1401.41 1068.45 1384.05 1073.69C1359.34 1081.16 1333.94 1084.51 1308.22 1084.67C1262.24 1084.96 1216.26 1084.75 1170.28 1084.75C1169.32 1084.76 1168.36 1084.75 1165.94 1084.75C1171.38 1079.68 1175.84 1075.4 1180.47 1071.29C1181.77 1070.13 1183.69 1070.77 1185.33 1070.77C1226.97 1070.75 1268.62 1070.75 1310.74 1070.75Z" fill="#E9991B"/>
<path d="M532.528 1057.63C532.196 1058.42 531.633 1059.26 530.856 1059.79C505.914 1076.87 482.916 1096.31 460.682 1116.74C442.446 1133.49 420.177 1143.44 397.453 1152.27C372.59 1161.92 347.014 1169.35 320.934 1174.99C319.873 1175.22 318.803 1175.91 317.172 1174.99C322.89 1169.03 328.479 1163.16 334.121 1157.34C346.062 1145.02 358.042 1132.73 369.971 1120.4C371.5 1118.82 373.107 1117.52 375.213 1116.73C426.902 1097.17 478.574 1077.56 530.255 1057.98C530.87 1057.75 531.548 1057.68 532.528 1057.63Z" fill="#E68E1B"/>
<path d="M1017.9 1017.24C1054.56 1017.24 1090.71 1017.36 1126.87 1017.11C1132.23 1017.07 1136.12 1018.3 1139.07 1022.78C1140.52 1024.98 1142.48 1026.84 1145.24 1030.06C1136.63 1028.49 1129.07 1032.09 1121.72 1028.18C1120.79 1027.69 1119.45 1027.94 1118.3 1027.94C1052 1027.94 985.695 1027.93 919.392 1028.01C916.663 1028.02 914.802 1027.21 912.887 1025.29C885.501 997.781 858.03 970.36 830.585 942.913C811.92 924.246 793.235 905.597 774.642 886.858C772.509 884.708 770.443 883.804 767.306 883.861C752.484 884.134 737.648 883.805 722.834 884.253C717.825 884.405 719.46 879.457 716.75 877.915C738.187 877.915 759.623 877.952 781.059 877.869C783.851 877.858 785.189 879.764 786.824 881.318C833.083 925.274 879.337 969.235 925.526 1013.26C928.544 1016.14 931.83 1017.29 935.915 1017.28C963.076 1017.21 990.236 1017.24 1017.9 1017.24Z" fill="#FCFCFA"/>
<path d="M901.914 452.316C889.266 466.385 876.699 480.154 864.063 493.859C848.821 510.391 833.504 526.854 818.267 543.39C816.628 545.169 815.036 546.432 812.408 546.602C761.736 549.873 711.069 553.234 660.401 556.568C659.955 556.597 659.502 556.514 657.57 556.383C667.201 553.231 675.517 550.555 683.803 547.788C741.884 528.392 799.374 507.505 854.127 479.78C870.18 471.652 885.761 462.711 900.553 451.835C901.314 451.498 901.68 451.569 901.914 452.316Z" fill="#E7411B"/>
<path d="M119.026 1271.88C101.853 1288.39 86.2413 1306.05 67.1646 1320.02C52.2252 1330.97 37.163 1341.66 20.2155 1349.35C14.2119 1352.07 8.07617 1354.49 0 1354.96C6.00232 1348.71 11.1192 1343.35 16.2801 1338.03C58.8604 1294.13 101.46 1250.25 143.999 1206.31C145.991 1204.26 147.956 1203.23 150.917 1203.27C162.716 1203.44 174.518 1203.34 187.032 1203.34C164.094 1226.46 141.685 1249.05 119.026 1271.88Z" fill="#FAD400"/>
<path d="M728.493 657.34C745.415 640.081 762.128 623.111 778.721 606.023C781.269 603.4 782.514 603.076 784.081 606.857C793.459 629.49 795.633 652.124 784.8 674.959C781.237 682.47 777.809 690.047 774.415 697.637C773.528 699.62 772.584 700.809 770.073 700.829C742.429 701.05 714.787 701.402 687.143 701.701C686.869 701.704 686.591 701.478 685.551 701.031C699.927 686.403 714.086 671.997 728.493 657.34Z" fill="#E81B1D"/>
<path d="M351.632 1121.7C354.127 1120.7 356.248 1119.81 359.818 1118.31C357.845 1120.49 356.892 1121.65 355.839 1122.7C339.112 1139.43 322.102 1155.88 306.812 1173.98C303.92 1177.4 300.225 1179.62 296.23 1181.29C268.354 1192.95 238.974 1193.45 209.478 1193.41C209.161 1191.15 210.627 1190.59 211.497 1189.77C234.681 1167.98 257.932 1146.25 281.049 1124.39C282.901 1122.64 284.411 1123.02 286.412 1123.34C305.425 1126.38 324.472 1127.78 343.553 1123.91C346.156 1123.39 348.692 1122.52 351.632 1121.7Z" fill="#E68E1B"/>
<path d="M989.195 374.933C1001.33 362.104 1012.19 348.601 1024.6 336.51C1032.11 329.193 1039.1 321.305 1046.93 314.368C1059.87 302.912 1071.49 290.139 1083.94 278.21C1087.58 274.722 1091.47 271.495 1095.63 267.806C1096.8 276.715 1096.68 284.105 1089.53 290.989C1076.49 303.545 1064.39 317.093 1052.11 330.423C1044.81 338.357 1036.78 345.627 1029.73 353.734C1024.32 359.953 1017.9 365.148 1012.77 371.523C1007.91 377.556 1001.52 382.204 997.08 388.394C992.979 394.115 987.168 397.947 982.983 403.325C977.55 410.306 970.643 415.827 964.957 422.448C958.841 429.57 951.916 435.846 945.642 442.769C934.376 455.2 922.505 467.056 911.047 479.297C900.332 490.744 889.523 502.099 878.793 513.528C867.824 525.213 856.629 536.7 845.87 548.561C837.217 558.099 827.662 566.75 819.377 576.641C812.538 584.806 805.098 592.469 797.922 600.352C797.7 600.596 797.448 600.813 797.222 601.054C795.518 602.868 793.263 605.12 791.113 603.12C788.968 601.124 790.947 598.445 792.514 596.529C796.058 592.195 800.238 588.425 804.035 584.323C816.541 570.812 828.705 557.008 840.898 543.224C853.188 529.33 865.399 515.366 877.679 501.463C883.332 495.063 889.175 488.829 894.742 482.356C905.596 469.735 916.853 457.474 927.591 444.741C933.814 437.362 940.598 430.385 947.007 423.111C955.449 413.531 964.102 404.137 972.524 394.54C978.103 388.182 983.436 381.609 989.195 374.933Z" fill="#FEFFF7"/>
<path d="M1046.53 355.374C1062.46 338.373 1078.15 321.628 1094.87 303.779C1090.15 327.982 1083.99 350.131 1075.49 371.609C1067.25 392.419 1056.25 411.255 1039.36 426.574C1024.33 440.207 1010.26 454.896 995.464 469.415C994.83 467.389 996.012 466.29 996.503 465.098C1003.27 448.709 1008.56 431.98 1009.11 414.042C1009.22 410.262 1008.92 406.629 1006.7 403.564C1004.53 400.562 1005.68 398.513 1007.81 396.27C1020.66 382.75 1033.47 369.183 1046.53 355.374Z" fill="#E7771B"/>
<path d="M590.532 582.049C576.865 581.155 563.646 580.464 549.91 578.593C551.857 576.047 553.893 575.959 555.996 575.795C574.025 574.392 592.057 573.009 610.076 571.48C631.867 569.629 653.64 567.559 675.433 565.733C708.976 562.922 742.536 560.303 776.073 557.428C781.16 556.992 786.185 556.252 791.41 556.774C791.219 560.027 788.482 560.976 786.749 562.458C774.769 572.701 762.595 582.717 750.565 592.902C749.038 594.195 747.613 594.781 745.634 594.613C730.102 593.295 714.564 592.054 699.029 590.777C675.742 588.862 652.461 586.882 629.169 585.043C617.758 584.141 606.326 583.505 594.906 582.714C593.594 582.623 592.298 582.302 590.532 582.049Z" fill="#E92E1B"/>
<path d="M1068.9 1069.75C1103.35 1069.75 1137.31 1069.75 1172.24 1069.75C1167.17 1075.53 1161.84 1079.86 1156.65 1084.29C1155.83 1084.99 1154.11 1084.74 1152.8 1084.74C1060.52 1084.76 968.247 1084.74 875.97 1084.82C873.13 1084.82 871.388 1083.98 869.92 1081.58C867.604 1077.79 864.962 1074.2 861.934 1069.75C931.331 1069.75 999.864 1069.75 1068.9 1069.75Z" fill="#EA421B"/>
<path d="M914.234 554.794C917.625 546.629 922.412 539.014 925.663 530.643C930.024 519.412 933.604 508.031 932.956 495.763C932.709 491.076 932.112 486.461 929.224 482.527C928.34 481.324 927.986 480.463 929.233 479.124C952.485 454.142 975.682 429.109 998.902 404.097C998.962 404.032 999.187 404.121 999.787 404.19C1000.31 418.115 998.505 431.85 995.461 445.434C990.748 466.476 981.188 484.815 966.489 500.89C949.629 519.328 932.021 537 914.234 554.794Z" fill="#E8681B"/>
<path d="M577.069 887.925C565.784 898.738 556.149 910.857 542.854 918.911C522.333 931.343 500.214 935.132 476.665 930.976C475.572 930.783 474.009 931.143 473.517 929.969C472.86 928.404 474.589 927.725 475.431 926.846C490.514 911.107 505.671 895.439 520.713 879.662C522.604 877.678 524.523 876.842 527.243 876.897C534.73 877.05 542.223 876.859 549.71 877C552.26 877.049 554.109 876.308 555.783 874.377C559.926 869.602 564.291 865.02 568.429 860.24C569.855 858.593 571.319 857.825 573.546 857.848C583.834 857.953 594.124 857.894 604.413 857.894C604.66 858.514 604.907 859.135 605.155 859.755C595.876 869.062 586.598 878.369 577.069 887.925Z" fill="#E51B1D"/>
<path d="M509.599 1054.87C519.313 1044.92 528.923 1035.35 537.987 1025.3C552.338 1009.39 567.24 994.007 582.073 978.552C596.341 963.686 610.474 948.688 624.451 933.549C636.017 921.02 647.766 908.677 659.629 896.429C671.247 884.433 682.37 871.958 693.702 859.685C695.168 858.097 696.527 856.843 699.087 856.86C719.697 856.995 740.309 856.936 761.002 856.936C761.002 858.768 761.002 860.727 761.002 862.833C752.14 862.833 743.307 862.351 734.55 862.959C724.309 863.67 714.104 864.05 703.859 863.545C702.474 863.477 701.575 863.968 700.545 865.142C687.394 880.13 674.104 894.997 660.874 909.915C646.262 926.392 631.778 942.981 617.085 959.389C606.227 971.512 595.47 983.749 584.775 996.027C572.689 1009.9 560.692 1023.85 548.147 1037.31C547.297 1038.22 546.654 1039.33 545.647 1040.52C545.136 1041.23 544.809 1041.69 544.027 1042.08C543.762 1042.18 543.73 1042.51 543.575 1042.57C540.218 1046.17 535.256 1046.32 531.182 1048.91C528.553 1050.28 526.252 1051.57 523.601 1052.88C519.574 1055.07 515.625 1056.61 511.574 1057.88C508.69 1058.78 507.605 1057.97 509.599 1054.87Z" fill="#FAFAF7"/>
<path d="M846.383 624.509C853.44 609.791 860.569 595.315 864.326 579.485C866.177 571.683 867.585 563.839 865.957 555.783C865.56 553.817 865.441 551.543 863.964 550.242C860.638 547.313 861.904 545.47 864.48 542.764C882.397 523.951 900.119 504.953 917.935 486.043C919.041 484.869 919.845 483.277 921.95 482.759C924.404 490.549 924.403 498.539 923.579 506.433C921.942 522.124 918.012 537.096 909.157 550.556C903.678 558.885 898.964 567.716 893.872 576.301C893.291 577.279 892.565 578.2 891.775 579.02C877.094 594.246 862.393 609.452 847.396 624.807C846.901 624.895 846.709 624.837 846.383 624.509Z" fill="#E7411B"/>
<path d="M809.66 687.51C807.052 690.115 804.43 692.262 802.396 694.869C799.244 698.908 795.417 700.707 790.385 699.745C789.222 699.522 787.404 700.662 787.014 698.819C786.7 697.33 786.397 695.623 787.913 694.206C790.862 691.452 793.705 688.577 796.473 685.639C814.824 666.157 834.115 647.594 852.638 628.291C866.266 614.089 880.565 600.535 893.873 586.057C908.393 570.26 924.392 555.937 938.824 540.11C952.609 524.992 968.005 511.47 981.648 496.283C997.508 478.63 1015.42 463.019 1031.14 445.241C1038.54 436.872 1046.87 429.316 1054.75 421.37C1056.27 419.837 1057.66 418.439 1060.19 418.58C1061.38 418.646 1063.15 416.55 1063.72 418.701C1064.2 420.508 1064.92 423.1 1063.06 424.679C1049.5 436.185 1038.48 450.191 1025.78 462.551C1012.43 475.537 999.342 488.831 986.812 502.602C978.988 511.201 970.451 519.057 962.607 527.599C947.589 543.951 931.925 559.683 916.661 575.791C909.483 583.367 901.674 590.369 894.979 598.351C886.466 608.502 876.894 617.655 867.614 626.991C858.372 636.289 849.725 646.16 840.211 655.222C829.582 665.347 819.966 676.534 809.66 687.51Z" fill="#FCFDEE"/>
<path d="M409.525 1061.75C395.759 1076.13 382.065 1090.96 367.279 1104.61C358.508 1112.7 346.55 1114.92 334.878 1116.49C320.101 1118.48 305.3 1118.16 290.51 1116.52C290.072 1116.48 289.664 1116.16 289.268 1115.98C289.156 1114.23 290.548 1113.61 291.42 1112.73C307.747 1096.31 324.102 1079.92 340.478 1063.55C341.818 1062.21 342.827 1060.52 345.475 1061.27C366.637 1067.24 387.878 1067.28 409.525 1061.75Z" fill="#E7771B"/>
<path d="M610.609 600.913C591.89 595.565 573.388 590.917 554.078 584.502C561.199 583.019 566.962 584.523 572.68 584.959C595.178 586.674 617.642 588.838 640.131 590.69C665.971 592.819 691.824 594.788 717.671 596.838C725.957 597.495 734.242 598.181 742.525 598.877C743.642 598.971 745.173 598.651 745.578 599.982C745.96 601.234 744.604 601.979 743.808 602.778C735.579 611.039 727.248 619.201 719.133 627.572C716.733 630.047 714.333 629.947 711.434 629.129C685.81 621.907 660.174 614.726 634.537 607.55C626.697 605.355 618.842 603.214 610.609 600.913Z" fill="#E51B1D"/>
<path d="M804.189 668.044C799.709 672.274 795.477 676.252 791.117 680.351C793.936 671.824 796.852 663.275 798.315 654.34C800.54 640.745 801.456 627.193 796.608 613.937C795.936 612.098 796.901 611.6 797.785 610.673C815.5 592.111 833.2 573.533 850.934 554.989C851.8 554.084 852.513 552.368 853.986 552.841C855.528 553.337 855.602 555.185 855.939 556.599C858.176 565.971 856.434 575.155 854.339 584.254C851.189 597.938 846.04 610.724 838.932 622.995C829.356 639.523 818.81 655.068 804.189 668.044Z" fill="#E82E1B"/>
<path d="M456.784 556.953C456.877 558.746 457.082 560.087 456.983 561.406C456.64 565.949 458.237 569.192 462.289 571.669C466.647 574.334 470.565 577.714 474.726 580.71C475.476 581.249 476.024 581.747 475.826 582.676C475.602 583.732 474.652 583.679 473.855 583.777C463.012 585.109 452.172 586.473 441.321 587.747C431.307 588.924 421.242 589.747 411.283 591.275C408.137 591.758 407.966 590.817 407.903 588.436C407.57 575.812 408.086 563.071 406.467 550.61C405.371 542.17 408.705 539.18 415.466 536.332C426.863 531.53 437.95 525.981 449.086 520.58C452.932 518.715 453.854 519.812 454.097 523.807C454.76 534.716 455.84 545.598 456.784 556.953Z" fill="#EA421B"/>
<path d="M446.521 1033.3C456.164 1022.07 467.015 1012.51 476.857 1001.98C492.026 985.76 507.655 969.988 522.986 953.931C535.829 940.48 548.721 927.073 561.531 913.593C578.145 896.11 595.093 878.954 611.649 861.429C615.307 857.556 618.651 856.557 623.19 856.964C624.453 857.077 626.336 855.918 626.893 858.15C627.335 859.92 626.472 861.559 625.256 862.524C618.191 868.126 612.29 874.919 605.966 881.262C587.189 900.097 568.273 918.812 550.055 938.179C536.714 952.361 522.432 965.605 509.266 979.92C497.315 992.913 484.234 1004.78 472.288 1017.73C458.934 1032.21 444.341 1045.47 431.049 1059.97C416.869 1075.44 401.27 1089.48 387.062 1104.9C384.188 1108.01 380.888 1105.24 376.383 1106.39C386.073 1096.31 394.763 1087.33 403.378 1078.28C413.766 1067.37 424.064 1056.38 434.455 1045.48C438.314 1041.43 442.326 1037.52 446.521 1033.3Z" fill="#F4F4ED"/>
<path d="M445.997 1053.86C454.542 1042.22 466.278 1038.66 479.781 1037.43C494.983 1036.04 510.046 1033.14 525.239 1030.88C525.826 1032.95 524.127 1033.6 523.246 1034.54C515.301 1043.06 507.278 1051.5 499.296 1059.98C497.918 1061.45 496.495 1062.75 494.559 1063.52C462.611 1076.32 430.679 1089.15 398.737 1101.97C398.32 1102.13 397.834 1102.13 396.117 1102.43C413.199 1085.79 429.465 1069.94 445.997 1053.86Z" fill="#E6671B"/>
<path d="M391.165 785.515C380.384 771.982 369.856 758.701 358.901 744.882C358.901 769.208 358.895 792.539 358.911 815.869C358.913 818.234 358.282 820.099 355.499 819.115C353.185 818.297 348.802 821.932 348.832 815.706C348.979 785.726 348.894 755.745 348.911 725.764C348.912 724.336 348.396 722.546 350.278 721.891C352.19 721.226 352.901 723.061 353.758 724.129C369.209 743.367 384.611 762.644 400.012 781.922C403.309 786.05 406.643 790.153 409.77 794.408C410.474 795.366 411.051 795.887 412.098 795.648C413.243 795.386 412.915 794.348 412.809 793.617C410.774 779.567 412.336 765.443 411.941 751.359C411.708 743.037 412.036 734.701 411.852 726.377C411.721 720.446 416.033 723.279 418.537 722.815C421.791 722.213 421.415 724.077 421.38 726.687C421.134 744.672 421.152 762.662 421.269 780.65C421.349 792.962 420.695 805.285 421.666 817.584C421.77 818.902 421.677 820.095 420.446 820.407C418.995 820.775 418.019 819.516 417.202 818.487C410.522 810.066 403.874 801.62 397.221 793.178C395.279 790.714 393.353 788.239 391.165 785.515Z" fill="#FEFEFE"/>
<path d="M788.947 958.723C775.997 939.159 763.226 919.908 750.078 900.087C754.507 900.079 757.718 900.32 760.452 903.877C799.998 955.342 839.681 1006.7 879.296 1058.11C880.251 1059.35 881.721 1060.38 881.791 1062.75C874.275 1062.75 866.86 1062.76 859.444 1062.74C856.909 1062.73 856.386 1060.41 855.344 1058.85C833.246 1025.59 811.19 992.311 788.947 958.723Z" fill="#E6671B"/>
<path d="M654.377 644.134C624.376 628.069 594.698 612.189 565.02 596.309C565.247 595.792 565.475 595.274 565.703 594.756C572.422 595.114 578.649 597.807 585.035 599.583C625.857 610.935 666.638 622.433 707.422 633.921C708.93 634.346 711.221 634.05 711.585 635.977C711.922 637.76 709.909 638.694 708.71 639.748C701.862 645.771 694.833 651.593 688.113 657.753C685.659 660.004 683.659 659.926 681.01 658.474C672.276 653.688 663.474 649.027 654.377 644.134Z" fill="#E51B1D"/>
<path d="M995.897 958.756C985.907 958.711 975.814 960.674 967.097 958.055C958.403 955.444 951.079 948.255 943.172 943.046C932.62 936.096 922.06 929.155 911.575 922.104C910.375 921.296 907.156 920.782 909.155 918.528C910.873 916.59 912.072 912.551 916.454 914.928C931.323 922.994 946.627 930.318 961.109 939.019C972.133 945.642 983.438 947.782 996.102 947.675C1039.74 947.304 1083.38 947.665 1127.02 947.779C1127.93 947.781 1129 947.305 1130.1 948.57C1127.39 951.568 1124.62 954.552 1121.94 957.618C1120.31 959.484 1118.21 958.718 1116.32 958.721C1076.35 958.767 1036.37 958.756 995.897 958.756Z" fill="#FEFEFE"/>
<path d="M349.595 1053.6C362.434 1041.23 375.026 1029.12 387.623 1017.02C389.021 1015.68 390.002 1014.39 392.653 1015.4C410.983 1022.38 429.627 1024.83 448.677 1018.18C448.924 1018.09 449.268 1018.29 450.139 1018.47C445.088 1023.69 439.842 1028.34 435.493 1033.73C416.69 1057 390.951 1059.55 363.856 1058.14C359.735 1057.92 355.644 1056.91 351.573 1056.09C350.552 1055.89 348.477 1056.19 349.595 1053.6Z" fill="#E6671B"/>
<path d="M410.794 625.861C408.984 617.234 407.296 609.008 405.341 600.845C404.804 598.602 405.265 597.93 407.471 597.636C424.307 595.388 441.122 592.977 457.964 590.771C464.313 589.94 464.705 590.479 463.054 596.622C458.636 613.068 454.119 629.487 449.703 645.934C448.988 648.594 447.407 649.47 444.95 648.635C434.963 645.24 424.999 641.778 415.035 638.313C413.73 637.859 412.947 637.073 412.721 635.471C412.287 632.381 411.472 629.345 410.794 625.861Z" fill="#E92E1B"/>
<path d="M937.062 963.566C891.966 929.052 847.154 894.754 802.342 860.456C802.077 860.253 801.775 860.077 801.571 859.824C800.757 858.818 798.406 858.508 799.849 856.446C801.435 854.181 802.823 856.114 804.009 856.932C818.664 867.05 833.272 877.236 847.896 887.4C885.89 913.807 923.896 940.197 961.855 966.654C964.021 968.164 966.161 968.806 968.782 968.79C983.27 968.699 997.791 969.326 1012.23 968.521C1020.44 968.064 1025.48 970.843 1028.75 978.014C1028.12 979.336 1026.79 978.731 1025.76 978.733C1003.94 978.772 982.125 978.742 960.31 978.794C958.051 978.799 956.196 978.346 954.361 976.876C948.775 972.403 943.028 968.131 937.062 963.566Z" fill="#E51B1D"/>
<path d="M605.889 643.471C607.905 640.622 604.795 639.906 603.787 638.872C595.197 630.053 586.419 621.415 577.731 612.691C576.476 611.431 574.761 610.423 574.758 608.22C576.214 607.279 577.55 607.89 578.85 608.607C611.767 626.765 644.665 644.957 677.618 663.048C680.991 664.9 681.621 666.42 678.504 669.151C671.645 675.161 664.894 681.3 658.208 687.503C655.84 689.699 654.434 688.283 652.806 686.657C643.742 677.602 634.674 668.551 625.548 659.558C624.178 658.209 623.154 656.271 620.658 656.53C620.29 656.782 620.133 656.626 619.776 656.202C618.417 654.215 616.917 652.822 615.075 651.319C614.637 651.017 614.464 650.898 614.045 650.593C613.644 650.279 613.489 650.15 612.906 649.617C612.34 649.077 612.204 648.94 611.664 648.4C611.125 647.863 610.989 647.73 610.444 647.207C609.897 646.688 609.759 646.559 609.205 646.05C608.245 645.159 607.696 644.654 606.81 644.123C606.405 643.881 606.247 643.777 605.889 643.471Z" fill="#E51B1D"/>
<path d="M473.835 937.003C494.794 942.453 502.03 942.108 532.631 934.261C531.976 936.402 530.277 937.499 528.984 938.847C522.184 945.933 515.538 953.186 508.42 959.939C503.809 964.313 497.678 966.456 491.757 968.515C472.026 975.374 452.027 974.463 431.891 970.554C431.985 968.297 433.51 967.619 434.556 966.675C445.298 956.964 456.193 947.419 466.776 937.539C469.23 935.247 471.114 935.953 473.835 937.003Z" fill="#E52D1A"/>
<path d="M401.131 1001.01C409.429 993.517 417.466 986.266 425.5 979.012C426.569 978.046 427.268 976.993 429.271 977.67C448.942 984.323 468.711 984.929 488.521 978.164C488.794 978.07 489.15 978.219 490.506 978.371C484.87 983.91 479.325 988.675 474.589 994.14C459.162 1011.95 438.75 1014.89 417.007 1014.01C410.154 1013.74 403.544 1012.01 397.079 1009.67C393.803 1008.48 393.512 1007.25 396.328 1005.16C397.928 1003.98 399.361 1002.56 401.131 1001.01Z" fill="#E7411B"/>
<path d="M1131.98 422.633C1117.98 443.692 1100.73 461.305 1079.34 474.583C1074.38 477.662 1068.2 477.685 1062.56 479.012C1048.97 482.208 1035.35 485.265 1021.14 487.678C1023.06 485.87 1025.1 484.169 1026.89 482.236C1040.19 467.838 1056.15 457.546 1074.08 449.645C1093.25 441.201 1111.86 431.518 1131.06 422.259C1131.57 422.216 1131.74 422.292 1131.98 422.633Z" fill="#E4961A"/>
<path d="M804.4 557.774C803.908 559.904 802.337 560.775 801.207 561.926C797.123 566.084 792.942 570.147 788.863 574.309C773.871 589.608 758.553 604.609 744.071 620.377C736.353 628.78 728.091 636.649 720.598 645.294C712.658 654.456 703.109 662.218 695.099 671.327C687.098 680.425 678.052 688.433 669.899 697.334C668.221 699.165 666.428 699.85 663.88 699.83C646.56 699.697 629.239 699.769 611.918 699.75C609.905 699.748 607.727 700.511 607.746 696.792C607.764 693.229 609.701 693.738 611.839 693.741C621.332 693.757 630.834 693.5 640.315 693.842C645.967 694.046 651.436 692.594 657.03 692.78C658.653 692.834 659.297 691.696 660.266 690.849C671.14 681.346 680.925 670.71 691.426 660.829C706.069 647.051 719.855 632.387 734.618 618.772C749.161 605.358 762.687 590.959 776.882 577.219C783.64 570.679 790.189 563.925 796.852 557.286C797.999 556.143 799.109 555.038 800.711 554.351C804.263 552.826 805.673 553.55 804.4 557.774Z" fill="#FCFCFA"/>
<path d="M890.064 797.776C891.686 791.99 889.518 788.051 885.049 785.218C877.587 780.485 869.053 778.424 860.757 775.83C852.733 773.322 844.791 770.742 837.956 765.586C826.192 756.712 826.102 740.864 837.821 731.724C844.275 726.69 851.624 724.035 859.777 723.73C863.763 723.581 867.763 723.661 871.754 723.766C878.204 723.935 879.032 725.32 876.917 731.254C875.799 734.392 873.662 733.968 871.315 733.464C864.271 731.953 857.508 732.962 850.88 735.59C845.056 737.898 841.667 742.336 841.247 748.313C840.823 754.339 844.436 758.372 849.74 761.098C859.173 765.945 869.589 767.961 879.432 771.622C883.295 773.06 887.08 774.61 890.68 776.573C905.404 784.6 907.103 800.591 894.072 811.001C885.153 818.126 874.478 820.049 863.29 819.786C861.206 819.737 860.366 818.564 860.982 816.982C862.004 814.356 861.03 810.083 865.752 810.06C871.283 810.032 876.622 809.205 881.611 806.712C885.372 804.832 888.776 802.572 890.064 797.776Z" fill="#FCFCFC"/>
<path d="M986.905 776.749C993.267 759.458 999.705 742.602 1005.76 725.611C1006.79 722.724 1008.3 722.713 1010.53 722.724C1012.85 722.734 1014.81 722.539 1015.92 725.534C1027.32 756.379 1038.88 787.164 1050.38 817.973C1050.55 818.41 1050.48 818.931 1050.53 819.412C1041.1 820.396 1040.98 820.442 1037.81 812.007C1028.92 788.338 1020.15 764.627 1010.9 739.787C1008.74 745.186 1006.77 749.807 1005.03 754.514C997.341 775.308 989.724 796.127 982.069 816.932C981.263 819.122 972.909 821.087 971.374 819.444C970.68 818.701 971.29 817.983 971.585 817.212C976.699 803.864 981.771 790.5 986.905 776.749Z" fill="#FCFCFC"/>
<path d="M414.237 936.68C413.301 934.517 415.041 933.076 415.968 931.412C425.056 915.104 433.583 898.545 438.97 880.568C440.945 873.979 442.1 867.26 441.087 860.362C440.761 858.141 440.982 856.871 443.693 856.968C459.653 857.537 475.616 858.022 489.821 858.479C465.143 884.071 439.834 910.315 414.237 936.68Z" fill="#E51B1D"/>
<path d="M1042.68 516.57C1030.41 523.381 1017.01 522.997 1004.05 524.653C997.847 525.446 991.606 525.951 985.137 526.612C985.823 524.007 987.832 522.919 989.283 521.441C993.713 516.928 998.647 512.852 1002.67 508.016C1009.5 499.821 1017.74 495.654 1028.47 494.224C1045.56 491.946 1062.45 488.14 1080.84 484.717C1069.75 498.466 1057.54 508.789 1042.68 516.57Z" fill="#E8681B"/>
<path d="M1000 558.882C993.348 562.004 986.799 563.174 979.792 562.544C970.593 561.718 961.356 561.326 950.914 560.671C958.026 553.338 964.873 547.248 970.509 540.192C976.145 533.136 982.887 530.923 991.557 530.684C1007.17 530.254 1022.76 528.843 1040.06 527.733C1027.64 540.622 1015.44 551.466 1000 558.882Z" fill="#E6671B"/>
<path d="M541.635 1014.5C536.297 1022.25 529.272 1025.4 520.187 1026.46C503.522 1028.39 487.009 1031.62 470.424 1034.26C469.035 1034.48 467.572 1035.14 465.551 1033.94C467.8 1031.41 469.906 1028.95 472.105 1026.58C477.082 1021.21 482.354 1016.09 487.025 1010.46C490.356 1006.46 494.138 1004.69 499.302 1004.19C518.001 1002.4 536.659 1000.17 556.896 997.936C551.349 1003.96 546.613 1009.1 541.635 1014.5Z" fill="#E6671B"/>
<path d="M320.639 382.097C317.045 382.733 313.889 381.99 310.31 381.937C309.824 380.169 311.026 379.978 312.212 379.857C314.036 379.671 315.872 379.76 317.703 379.76C399.29 379.757 480.878 379.738 562.465 379.81C566.78 379.814 571.035 379.187 575.726 379.512C576.721 381.239 576.503 382.698 576.013 384.472C570.084 390.131 563.75 394.752 559.853 401.791C558.819 403.659 556.267 404.617 554.608 406.263C549.126 411.704 544.904 418.336 538.837 423.19C536.798 424.822 535.438 428.596 531.738 426.03C536.503 418.091 542.626 411.615 547.922 404.513C550.292 401.335 552.883 398.321 555.289 395.169C556.045 394.178 557.507 393.157 556.804 391.798C556.103 390.442 554.412 391.23 553.165 391.045C552.351 390.925 551.515 390.953 550.275 390.789C546.593 390.603 543.291 391.25 539.633 390.088C535.047 389.951 530.897 389.915 526.3 389.758C523.248 389.658 520.615 390.174 517.647 389.071C512.736 388.943 508.248 388.926 503.309 388.784C500.576 388.663 498.261 389.129 495.626 388.08C490.72 387.952 486.236 387.92 481.3 387.76C476.592 387.607 472.31 388.288 467.642 387.092C462.383 386.956 457.57 386.927 452.305 386.771C447.593 386.597 443.307 387.293 438.637 386.096C433.377 386.668 428.571 385.894 423.31 385.788C418.267 385.593 413.651 386.281 408.644 385.093C403.381 384.956 398.566 384.927 393.3 384.767C388.588 384.606 384.303 385.29 379.63 384.1C374.369 384.682 369.565 383.889 364.305 383.781C359.591 383.592 355.3 384.297 350.624 383.106C345.365 383.695 340.565 382.92 335.31 382.793C330.266 382.59 325.648 383.283 320.639 382.097Z" fill="#F0F0EF"/>
<path d="M951.985 565.916C967.238 566.537 982.019 567.151 996.787 567.763C997.442 569.564 995.935 570.251 995.181 571.14C985.301 582.79 973.918 592.33 958.38 595.153C949.238 596.814 940.227 593.906 931.151 593.187C927.136 592.869 922.934 593.085 921.012 592.258C928.337 584.07 936.004 575.351 943.867 566.812C945.919 564.584 948.949 566.203 951.985 565.916Z" fill="#E6671B"/>
<path d="M467.795 479.057C468.382 483.962 467.412 488.482 468.695 492.899C469.331 495.089 468.115 495.787 465.945 495.615C453.748 494.651 441.553 493.594 429.337 492.961C424.884 492.73 422.782 489.342 419.909 487.151C414.401 482.952 409.377 478.117 404.185 473.509C403.101 472.547 401.483 471.677 401.933 469.927C402.467 467.849 404.393 468.773 405.734 468.662C425.005 467.066 444.283 465.544 463.552 463.925C465.808 463.736 466.854 464.161 466.949 466.711C467.098 470.67 466.52 474.702 467.795 479.057Z" fill="#E8681B"/>
<path d="M710.853 800.758C709.481 805.15 707.379 808.856 706.667 813.081C705.734 818.618 701.932 818.942 697.119 818.899C687.968 818.817 687.298 818.769 690.96 809.534C701.677 782.5 712.338 755.443 723.19 728.463C724.109 726.178 724.476 722.608 726.908 722.015C730.366 721.172 734.252 721.348 737.815 721.935C740.076 722.308 738.778 724.439 738.221 725.961C734.053 737.353 729.986 748.781 725.807 760.168C720.885 773.582 715.882 786.966 710.853 800.758Z" fill="#FCFCFC"/>
<path d="M355.022 422.566C354.281 421.317 352.778 420.516 353.471 419.333C354.167 418.145 355.6 418.853 356.67 419.087C380.699 424.363 404.722 429.669 429.254 435.082C422.852 441.487 415.65 446.375 409.058 451.972C406.173 454.422 403.171 456.735 400.235 459.126C396.036 462.548 393.863 462.503 390.049 458.598C378.429 446.7 366.857 434.754 355.022 422.566Z" fill="#E4961A"/>
<path d="M608.644 943.508C604.148 947.988 599.666 952.012 595.731 956.514C592.442 960.276 588.724 962.01 583.744 962.296C566.464 963.29 549.204 964.611 531.936 965.797C531.164 965.85 530.386 965.804 528.188 965.804C536.889 957.121 544.683 949.301 552.562 941.566C553.177 940.963 554.371 940.754 555.314 940.706C574.422 939.717 593.534 938.779 613.076 937.809C612.52 940.577 610.171 941.533 608.644 943.508Z" fill="#E52D1A"/>
<path d="M577.406 663.246C569.681 655.463 562.206 647.929 554.305 639.966C557.137 639.743 558.645 641.202 560.228 642.171C574.713 651.038 589.95 658.432 605.228 665.801C610.84 668.507 615.954 666.71 621.237 666.156C624.539 665.81 626.64 666.474 629.07 668.883C635.635 675.394 642.662 681.439 649.507 687.669C649.034 688.365 648.561 689.061 648.088 689.757C641.692 689.757 635.296 689.777 628.9 689.752C620.747 689.721 611.747 691.794 604.685 688.993C597.826 686.273 592.939 678.556 587.22 672.998C583.997 669.867 580.842 666.666 577.406 663.246Z" fill="#E81B1D"/>
<path d="M612.858 794.465C610.545 802.254 607.032 808.831 600.796 813.656C592.23 820.284 582.692 821.288 572.128 819.937C557.879 818.115 548.37 807.493 544.904 794.908C542.86 787.485 542.749 779.894 542.869 772.267C542.97 765.778 543.048 759.281 542.842 752.797C542.648 746.666 547.167 749.443 549.875 748.824C553.528 747.988 552.912 750.604 552.912 752.697C552.909 762.683 552.549 772.685 553.004 782.65C553.546 794.533 559.47 805.596 570.651 808.978C587.525 814.082 603.43 803.266 603.779 785.634C603.867 781.154 605.558 781.067 608.831 782.285C614.724 784.477 614.88 784.883 612.858 794.465Z" fill="#FAFAF7"/>
<path d="M372.529 464.229C370.707 456.387 369.009 448.944 367.293 441.422C369.141 441.235 369.616 442.714 370.435 443.569C381.257 454.882 391.937 466.334 402.889 477.519C405.96 480.655 406.971 483.526 406.187 488.025C403.935 500.943 402.385 513.983 399.937 527.195C389.747 506.793 375.448 488.27 372.529 464.229Z" fill="#E6671B"/>
<path d="M518.013 626.289C508.855 625.691 500.083 625.272 491.309 624.872C482.531 624.472 473.754 624.05 464.973 623.729C462.678 623.644 461.761 623.236 462.435 620.518C464.697 611.382 466.772 602.194 468.618 592.965C469.114 590.485 470.213 590.138 472.4 589.512C480.128 587.3 485.698 589.187 491.346 595.29C500.22 604.878 510.299 613.349 519.852 622.31C520.793 623.193 522.244 624.013 521.805 625.521C521.279 627.326 519.617 626.399 518.013 626.289Z" fill="#E82E1B"/>
<path d="M640.177 910.287C633.829 917.502 627.331 924.38 620.836 931.262C620 932.148 619.025 932.622 617.77 932.659C598.997 933.212 580.224 933.794 561.451 934.337C561.032 934.349 560.603 933.983 559.672 933.567C566.753 926.442 573.625 919.532 580.489 912.615C581.401 911.696 582.554 911.666 583.725 911.631C602.493 911.073 621.26 910.511 640.177 910.287Z" fill="#E51B1D"/>
<path d="M512.701 996.42C508.322 996.857 504.393 997.242 498.812 997.788C504.182 992.355 509.066 988.337 512.787 983.438C518.773 975.555 526.485 973.148 535.985 972.73C550.251 972.104 564.466 970.355 578.705 969.117C579.79 969.023 580.938 968.518 582.589 969.664C575.993 976.542 569.543 983.381 562.943 990.072C561.348 991.689 558.903 991.376 556.777 991.61C542.237 993.207 527.694 994.784 512.701 996.42Z" fill="#E7411B"/>
<path d="M426.464 444.449C427.552 443.379 428.412 442.589 429.196 441.728C432.661 437.925 436.322 436.297 441.92 437.662C459.998 442.071 478.241 445.805 496.416 449.818C497.643 450.089 499.096 449.992 499.951 451.782C495.174 453.99 489.971 453.735 485.051 454.414C461.919 457.604 438.745 460.49 415.569 463.353C413.106 463.657 409.566 464.919 408.259 462.475C406.565 459.307 410.643 458.405 412.333 456.642C416.569 452.221 421.311 448.368 426.464 444.449Z" fill="#E4961A"/>
<path d="M526.039 608.16C527.291 601.375 531.664 596.431 534.889 590.931C536.345 588.449 537.599 591.533 538.46 592.412C549.396 603.583 560.217 614.869 571.087 626.105C579.992 635.31 588.93 644.483 597.837 653.685C598.917 654.8 599.901 656.008 601.204 657.484C598.745 657.756 597.504 656.476 596.116 655.739C582.912 648.725 569.838 641.459 556.527 634.657C549.168 630.896 542.638 626.362 537.286 620.002C533.868 615.94 529.937 612.31 526.039 608.16Z" fill="#E52D1A"/>
<path d="M408.883 525.544C410.383 513.101 411.857 501.097 413.326 489.136C413.986 489.104 414.486 488.962 414.571 489.092C421.922 500.32 433.863 497.335 444.356 498.608C450.444 499.347 456.606 499.469 464.062 499.956C459.33 505.88 457.682 512.666 450.214 515.613C436.164 521.156 422.42 527.475 408.443 533.517C407.509 530.757 408.962 528.415 408.883 525.544Z" fill="#E6671B"/>
<path d="M481.724 524.914C489.702 534.192 497.453 543.197 505.903 553.015C498.514 553.505 492.267 553.937 486.017 554.33C478.889 554.778 471.743 555.028 464.635 555.69C461.292 556.002 460.319 554.752 460.119 551.664C459.56 543.048 458.984 534.422 457.994 525.85C457.422 520.891 461.032 518.355 463.285 515.078C467.726 508.618 467.866 508.709 473.082 514.787C475.894 518.065 478.692 521.356 481.724 524.914Z" fill="#E7411B"/>
<path d="M674.168 858.603C678.897 858.607 683.154 858.607 688.904 858.607C681.654 866.416 675.391 873.153 669.142 879.903C668.231 880.887 667.048 880.808 665.902 880.809C649.127 880.821 632.352 880.817 615.185 880.817C614.779 880.055 616.102 879.432 616.812 878.665C622.453 872.566 628.201 866.566 633.771 860.404C635.479 858.513 637.245 857.747 639.813 857.83C651.104 858.195 662.401 858.361 674.168 858.603Z" fill="#E51B1D"/>
<path d="M926.459 598.273C938.851 600.107 950.816 601.836 964.253 603.777C950.604 614.429 938.74 625.215 920.713 621.85C912.251 620.27 903.684 619.255 895.922 618.097C900.01 613.437 904.469 608.86 908.33 603.823C913.046 597.669 918.757 595.755 926.459 598.273Z" fill="#E7411B"/>
<path d="M665.229 750.494C662.261 742.585 659.742 734.906 656.76 727.411C655.48 724.193 655.047 722.407 659.406 722.692C660.13 722.739 660.871 722.011 661.648 721.834C666.954 720.623 669.43 721.861 671.42 727.024C676.959 741.387 682.506 755.75 687.794 770.206C688.697 772.674 689.824 773.91 692.28 773.719C695.711 773.453 695.334 775.609 694.562 777.492C691.861 784.075 688.954 790.573 686.129 797.106C685.058 799.583 683.848 799.822 682.727 797.203C681.398 794.099 680.163 790.951 678.998 787.782C674.472 775.463 669.989 763.128 665.229 750.494Z" fill="#FCFCFC"/>
<path d="M651.837 897.704C647.723 903.563 642.383 905.022 635.709 904.845C620.299 904.439 604.871 904.716 590.113 904.716C593.626 901.096 598.205 896.736 602.347 891.995C605.784 888.06 609.641 886.631 614.92 886.683C629.041 886.823 643.169 886.282 657.296 886.077C658.865 886.055 660.549 885.53 663.53 887.439C659.486 890.978 655.787 894.216 651.837 897.704Z" fill="#E51B1D"/>
<path d="M522.167 573.477C525.466 577.66 530.552 581.345 531.021 585.545C531.456 589.433 526.722 593.766 524.683 598.1C522.691 602.336 521.082 602.491 517.716 599.123C506.084 587.484 494.132 576.163 482.314 564.709C481.145 563.576 480.059 562.355 478.176 560.378C489.161 559.83 499.206 559.316 509.253 558.839C510.84 558.763 511.46 560.154 512.27 561.151C515.515 565.15 518.72 569.183 522.167 573.477Z" fill="#E52D1A"/>
<path d="M620.512 656.894C619.919 658.582 622.587 661.099 620.309 661.682C617.691 662.352 614.378 663.17 611.863 660.659C602.831 651.64 593.543 642.857 584.854 633.518C574.553 622.446 563.547 612.092 553.046 601.234C546.844 594.821 540.099 588.945 534.392 582.026C533.228 580.615 532.66 579.212 533.456 578.217C534.607 576.778 536.158 577.784 537.319 578.886C540.561 581.961 543.834 585.004 547.036 588.119C556.842 597.657 566.67 607.163 576.663 616.513C586.172 625.41 595.792 634.248 605.313 643.409C605.686 643.27 605.79 643.122 605.778 643.032C606.986 643.78 608.018 644.894 609.613 645.707C609.791 645.972 609.828 645.881 609.779 645.89C610.058 646.005 610.334 646.189 610.656 646.684C610.753 646.919 610.877 646.768 610.804 646.833C611.06 647.004 611.333 647.191 611.657 647.684C611.754 647.919 611.876 647.77 611.804 647.833C612.059 648.003 612.333 648.191 612.656 648.684C612.753 648.919 612.877 648.768 612.804 648.833C613.058 649.005 613.335 649.189 613.656 649.684C613.753 649.919 613.776 649.784 613.736 649.84C616.179 651.772 618.189 654.137 620.544 656.614C620.733 656.886 620.579 656.85 620.512 656.894Z" fill="#EAEBE1"/>
<path d="M891.194 642.383C885.453 641.131 880.122 639.987 873.996 638.673C879.234 632.753 883.957 627.428 888.661 622.086C889.512 621.119 890.453 620.772 891.757 621.05C905.07 623.894 918.391 626.699 931.828 629.54C926.464 638.856 910.27 646.292 900.416 644.24C897.484 643.629 894.542 643.073 891.194 642.383Z" fill="#E7411B"/>
<path d="M881.797 893.9C889.145 898.815 896.225 903.484 903.189 908.321C904.236 909.049 907.31 909.487 905.442 911.505C904.09 912.966 902.152 915.77 899.148 913.583C898.476 913.094 897.795 912.618 897.112 912.144C868.16 892.031 839.19 871.943 810.311 851.726C809.067 850.855 805.598 850.718 807.279 847.856C808.872 845.143 811.051 846.425 813.155 847.841C835.911 863.166 858.707 878.429 881.797 893.9Z" fill="#E6671B"/>
<path d="M801.387 817.133C786.138 818.26 771.313 817.298 756.508 817.781C752.984 817.896 751.712 815.357 751.125 813.042C750.52 810.653 751.965 808.59 754.633 807.372C756.317 806.604 757.849 806.778 759.424 806.786C777.383 806.872 795.342 807.02 813.301 807.195C816.704 807.228 819.043 808.434 818.942 812.465C818.845 816.374 816.545 817.048 813.315 816.965C809.49 816.866 805.661 816.968 801.387 817.133Z" fill="#FCFCFC"/>
<path d="M390.889 549.761C386.352 530.862 381.021 512.572 377.277 493.598C380.452 493.851 381.086 495.86 381.9 497.521C387.544 509.054 393.136 520.614 398.714 532.179C399.208 533.203 399.815 534.327 399.819 535.407C399.891 551.806 402.341 568.104 401.871 584.522C401.854 585.109 401.693 585.691 401.402 587.5C396.061 574.793 394.54 562.181 390.889 549.761Z" fill="#E7411B"/>
<path d="M408.058 630.36C402.443 629.019 401.143 623.323 397.555 619.797C395.232 617.515 393.799 614.337 391.519 611.997C387.058 607.421 388.818 601.52 388.224 596.352C386.521 581.557 385.831 566.644 384.809 551.772C384.684 549.961 384.964 548.122 385.084 545.744C389.433 551.501 389.933 558.156 391.615 564.29C396.983 583.862 401.933 603.549 407.256 623.133C407.886 625.452 407.773 627.729 408.058 630.36Z" fill="#E52D1A"/>
<path d="M418.261 643.296C421.371 644.57 424.198 645.53 426.921 646.727C429.599 647.904 430.172 649.393 427.306 651.247C420.237 655.822 413.234 660.497 406.181 665.097C403.65 666.748 401.842 666.283 401.06 663.151C397.691 649.652 394.287 636.162 390.965 622.651C390.627 621.273 389.912 619.256 391.293 618.506C392.831 617.672 393.747 619.493 394.668 620.674C398.528 625.623 402.842 630.269 406.237 635.514C409.143 640.003 413.417 641.532 418.261 643.296Z" fill="#E92E1B"/>
<path d="M511.3 606.326C505.209 600.719 499.321 595.419 493.542 590.002C484.833 581.839 476.232 573.561 467.505 565.417C465.889 563.91 463.553 562.075 465.383 560.307C467.131 558.619 470.266 558.711 472.487 560.902C477.198 565.55 481.924 570.185 486.621 574.847C501.622 589.739 516.613 604.641 531.61 619.537C532.082 620.005 532.661 620.388 533.051 620.914C534.101 622.331 536.099 624.043 534.522 625.598C533.084 627.016 531.334 625.367 529.873 624.167C523.31 618.773 517.723 612.374 511.3 606.326Z" fill="#EAEBE1"/>
<path d="M889.185 661.111C883.163 663.938 877.32 663.889 871.294 662.705C865.607 661.587 859.851 660.828 852.91 659.717C858.48 653.825 863.387 648.58 868.395 643.433C868.83 642.986 869.98 642.958 870.714 643.12C881.718 645.548 892.708 648.042 904.686 650.742C899.931 655.641 894.999 658.666 889.185 661.111Z" fill="#E7411B"/>
<path d="M792.9 764.753C799.39 764.753 805.387 764.573 811.367 764.822C814.793 764.965 818.979 765.634 818.704 770.111C818.465 774.017 814.809 774.859 811.23 774.77C808.403 774.7 805.573 774.756 802.745 774.756C788.435 774.756 774.126 774.765 759.817 774.742C758.333 774.74 756.718 774.884 755.398 774.365C753.571 773.648 751.953 772.322 751.922 770.04C751.892 767.779 753.148 766.5 755.255 765.718C757.287 764.964 759.307 764.717 761.452 764.728C771.768 764.783 782.084 764.753 792.9 764.753Z" fill="#FEFEFE"/>
<path d="M942.037 797.754C942.058 804.246 941.911 810.246 942.192 816.226C942.289 818.281 942.755 820.166 939.959 819.673C937.48 819.235 933.518 821.931 932.909 816.82C932.831 816.164 932.897 815.49 932.897 814.824C932.897 794.513 932.891 774.203 932.902 753.892C932.904 749.415 937.327 746.735 941.269 748.837C942.459 749.472 942.245 750.583 942.234 751.814C942.096 766.96 942.083 782.107 942.037 797.754Z" fill="#FEFEFE"/>
<path d="M576.244 379.558C569.717 381.168 563.226 380.745 556.761 380.746C476.633 380.758 396.505 380.75 316.377 380.773C314.404 380.774 312.378 380.366 310.168 381.504C301.952 382.043 294.05 381.829 285.105 380.869C287.874 378.649 290.065 379.297 292.033 379.297C383.186 379.276 474.339 379.252 565.492 379.471C569.122 379.48 572.739 376.669 576.244 379.558Z" fill="#EAEBE1"/>
<path d="M943.897 723.753C952.38 723.753 960.365 723.824 968.347 723.71C970.859 723.675 972.746 723.891 971.879 727.074C971.296 729.22 974.106 732.898 968.64 732.841C948.184 732.628 927.723 732.617 907.268 732.867C902.913 732.921 903.991 730.445 903.89 728.144C903.778 725.6 903.369 723.511 907.474 723.63C919.439 723.975 931.421 723.752 943.897 723.753Z" fill="#FEFEFE"/>
<path d="M319.898 788.754C319.898 777.267 320.075 766.276 319.794 755.296C319.706 751.844 321.324 750.062 324.036 749.924C327.223 749.76 328.901 752.063 328.899 755.377C328.886 774.688 328.898 793.998 328.886 813.309C328.884 816.523 327.271 818.825 324.054 818.605C321.283 818.415 319.66 816.678 319.797 813.222C320.114 805.244 319.898 797.245 319.898 788.754Z" fill="#FEFEFE"/>
<path d="M640.898 773.755C640.898 787.253 640.9 800.251 640.897 813.25C640.896 816.16 641 818.77 636.671 818.867C632.149 818.967 631.922 816.218 631.916 813.121C631.874 794.29 631.851 775.458 631.94 756.628C631.954 753.612 631.95 750.484 636.74 750.646C641.475 750.805 640.844 753.894 640.879 756.757C640.946 762.255 640.898 767.755 640.898 773.755Z" fill="#FEFEFE"/>
<path d="M782.9 732.756C774.092 732.857 765.783 732.89 757.477 733.09C753.851 733.178 751.213 731.129 751.291 728.121C751.37 725.082 754.082 723.396 757.753 723.444C775.88 723.682 794.01 723.681 812.139 723.746C815.353 723.758 818.819 723.369 818.888 728.117C818.956 732.763 815.655 732.768 812.343 732.762C802.695 732.745 793.048 732.756 782.9 732.756Z" fill="#FEFEFE"/>
<path d="M870.244 678.149C858.161 685.039 847.123 678.945 834.57 676.763C839.517 671.916 843.649 667.874 847.77 663.82C848.539 663.063 849.424 662.748 850.483 662.932C861.246 664.811 872.008 666.69 883.516 668.7C879.488 673.117 875.117 675.657 870.244 678.149Z" fill="#E52D1A"/>
<path d="M588.144 407.678C592.06 409.183 595.612 410.556 600.706 412.525C582.721 417.087 566.176 421.283 549.632 425.48C549.46 425.221 549.289 424.963 549.117 424.705C555.863 417.24 562.639 409.803 569.329 402.29C570.709 400.741 572.005 401.481 573.362 401.996C578.177 403.824 582.975 405.694 588.144 407.678Z" fill="#E7771B"/>
<path d="M613.9 744.755C613.905 753.397 613.845 761.541 613.951 769.682C613.987 772.477 613.478 772.911 610.62 771.895C606.14 770.302 604.54 767.999 604.739 763.019C605.223 750.908 605.107 738.758 604.78 726.636C604.669 722.501 606.619 722.758 609.497 722.667C612.66 722.567 614.286 722.916 614.008 726.814C613.594 732.6 613.9 738.438 613.9 744.755Z" fill="#FEFEFE"/>
<path d="M853.752 685.282C854.108 685.724 854.262 686.224 854.184 686.264C841.98 692.409 829.276 696.66 814.77 695.75C819.891 690.988 824.998 686.21 830.145 681.477C831.295 680.419 832.641 681.041 833.933 681.297C840.433 682.588 846.938 683.852 853.752 685.282Z" fill="#E52D1A"/>
<path d="M950.723 1116.21C950.532 1113.81 951.77 1113.71 953.238 1113.74C955.736 1113.8 958.248 1113.9 960.734 1113.71C963.167 1113.52 964.738 1112.04 964.82 1109.54C964.908 1106.84 963.318 1105.19 960.702 1104.94C958.224 1104.71 955.707 1104.9 953.207 1104.86C952.116 1104.85 950.797 1105.24 950.709 1103.36C950.612 1101.28 951.94 1101.33 953.33 1101.42C956.627 1101.63 959.964 1100.91 963.227 1102.08C968.188 1103.86 970.702 1109.96 967.157 1113.56C964.111 1116.66 964.37 1118.71 966.69 1121.65C967.665 1122.89 968.147 1124.51 968.843 1125.94C965.981 1127.75 964.861 1125.51 963.713 1123.86C962.692 1122.38 962.035 1120.66 961.184 1119.06C959.915 1116.68 957.672 1117.67 955.818 1117.67C953.329 1117.68 954.348 1119.75 954.182 1121.04C954.056 1122.02 954.167 1123.03 954.153 1124.03C954.136 1125.21 954.23 1126.45 952.487 1126.49C950.779 1126.53 950.711 1125.39 950.717 1124.15C950.729 1121.65 950.72 1119.15 950.723 1116.21Z" fill="#F0F0EF"/>
<path d="M1005.3 1124.12C1005.63 1125.12 1007.51 1125.87 1005.68 1126.42C1004.14 1126.88 1002.61 1126.59 1001.53 1124.68C1000 1121.97 997.941 1119.56 996.077 1117.05C995.324 1116.03 994.255 1115.59 993.005 1115.81C991.201 1116.13 991.979 1117.62 991.912 1118.61C991.791 1120.44 991.881 1122.27 991.873 1124.11C991.869 1125.31 991.869 1126.46 990.152 1126.52C988.269 1126.59 987.98 1125.5 987.985 1123.98C988.009 1117.15 988.02 1110.33 987.977 1103.5C987.967 1102.01 988.553 1101.4 990.016 1101.39C991.629 1101.37 991.939 1102.26 991.89 1103.62C991.831 1105.28 991.755 1106.96 991.921 1108.61C992.035 1109.75 991.029 1111.43 993.101 1111.87C994.819 1112.23 995.39 1110.81 996.133 1109.78C997.664 1107.66 999.32 1105.59 1000.53 1103.3C1001.8 1100.88 1003.47 1101.25 1005.47 1101.73C1005.35 1103.62 1004.03 1104.48 1003.17 1105.66C997.406 1113.53 997.428 1113.54 1003.42 1121.42C1004.02 1122.2 1004.58 1123 1005.3 1124.12Z" fill="#EAEBE1"/>
<path d="M1063.94 1105.2C1064.02 1103.2 1063.37 1101.19 1066.17 1101.43C1068.25 1101.6 1067.71 1103.16 1067.79 1104.39C1067.81 1104.56 1067.77 1104.73 1067.8 1104.89C1068.29 1107.18 1066.37 1110.76 1068.86 1111.59C1072.28 1112.74 1072.57 1108.21 1074.45 1106.4C1076.49 1104.42 1076.8 1100.28 1081.67 1101.82C1079.83 1104.65 1078.32 1107.52 1076.29 1109.96C1074.29 1112.37 1074.13 1114.21 1076.14 1116.7C1078.48 1119.62 1080.39 1122.89 1082.57 1126.13C1079.89 1127.03 1078.28 1126.35 1076.99 1123.87C1075.78 1121.57 1073.99 1119.57 1072.4 1117.47C1071.58 1116.39 1070.56 1115.5 1069.04 1115.78C1066.95 1116.17 1067.96 1117.87 1067.84 1118.99C1067.67 1120.47 1067.8 1121.98 1067.79 1123.47C1067.79 1124.97 1068 1126.61 1065.65 1126.49C1063.55 1126.37 1063.97 1124.81 1063.96 1123.57C1063.93 1117.6 1063.95 1111.62 1063.94 1105.2Z" fill="#F0F0EF"/>
<path d="M840.692 801.958C842.239 802.977 843.412 804.06 844.786 804.471C849.488 805.876 850.262 808.106 848.225 812.771C846.75 816.147 845.4 816.343 842.794 814.96C839.468 813.194 836.163 811.378 832.933 809.444C830.907 808.232 827.575 807 829.452 804.074C831.099 801.507 833.922 799.182 837.733 800.474C838.659 800.788 839.52 801.296 840.692 801.958Z" fill="#FAFAF7"/>
<path d="M1094.55 1107.33C1096.41 1105.42 1095.08 1101.2 1098.65 1101.54C1101.78 1101.84 1101.16 1105.3 1101.99 1107.43C1103.99 1112.61 1105.92 1117.81 1107.69 1123.07C1108.02 1124.05 1109.08 1125.77 1107.38 1126.39C1105.78 1126.97 1104.66 1125.99 1104.11 1124.23C1102.39 1118.61 1100.53 1113.04 1098.48 1106.72C1096.44 1112.88 1094.52 1118.31 1092.9 1123.82C1092.32 1125.76 1091.35 1127.14 1089.54 1126.34C1087.86 1125.6 1089.08 1123.94 1089.53 1122.61C1091.21 1117.66 1092.8 1112.67 1094.55 1107.33Z" fill="#EAEBE1"/>
<path d="M1140.07 1113C1138.82 1116.98 1137.56 1120.52 1136.54 1124.13C1136.04 1125.91 1134.98 1126.9 1133.36 1126.42C1131.39 1125.84 1132.78 1124.09 1133.06 1123.24C1135.19 1116.74 1137.62 1110.33 1139.81 1103.85C1140.29 1102.43 1140.72 1101.34 1142.37 1101.43C1144.06 1101.52 1144.27 1102.85 1144.72 1104.16C1146.8 1110.34 1148.99 1116.49 1151.18 1122.63C1151.66 1123.94 1152.86 1125.61 1151.13 1126.35C1149.31 1127.14 1148.39 1125.75 1147.81 1123.82C1146.34 1118.83 1144.52 1113.94 1142.87 1109.09C1140.46 1109.44 1141.22 1111.63 1140.07 1113Z" fill="#EAEBE1"/>
<path d="M531.602 425.882C535.719 427.116 536.631 423.258 538.639 421.678C546.047 415.848 551.084 407.715 558.145 401.355C562.549 397.388 566.24 392.072 570.56 387.633C571.802 386.355 572.861 384.687 575.355 384.769C563.831 396.304 553.372 409.165 541.534 420.741C538.542 423.667 535.614 426.862 532.755 430.023C531.851 431.022 530.873 432.882 529.132 431.333C527.293 429.697 529.632 428.837 530.129 427.653C530.378 427.062 530.925 426.596 531.602 425.882Z" fill="#EAEBE1"/>
<path d="M553.175 735.591C554.026 738.617 553.665 739.856 550.417 739.845C543.544 739.822 543.548 740.016 543.655 733.135C543.679 731.645 543.693 730.152 543.644 728.662C543.465 723.244 546.143 721.274 551.493 722.787C553.414 723.33 553.472 724.528 553.36 726.188C553.159 729.156 553.216 732.141 553.175 735.591Z" fill="#FCFCFC"/>
<path d="M909.653 1114.92C902.176 1111.82 900.571 1108.68 904.084 1104.21C906.361 1101.32 909.659 1101.05 913.366 1101.58C913.368 1104.06 912.165 1104.98 909.803 1104.91C907.692 1104.85 906.197 1106.15 906.106 1108.05C906.02 1109.84 907.64 1110.75 909.422 1111.16C910.696 1111.45 911.883 1112.12 913.154 1112.44C917.348 1113.49 920.75 1115.4 920.04 1120.41C919.44 1124.64 916.022 1126.44 910.138 1126.18C910.637 1124.83 910.789 1123.04 912.447 1122.85C914.682 1122.59 916.62 1121.76 916.577 1119.55C916.533 1117.35 914.102 1116.71 912.332 1115.86C911.601 1115.51 910.804 1115.3 909.653 1114.92Z" fill="#EAEBE1"/>
<path d="M319.906 725.137C321.682 721.133 324.811 722.723 327.253 723.112C329.65 723.493 328.832 726.015 328.881 727.735C328.957 730.387 328.626 733.078 328.962 735.689C329.546 740.222 327.309 740.951 323.454 740.855C320.542 740.783 319.724 739.774 319.853 737.042C320.032 733.235 319.898 729.414 319.906 725.137Z" fill="#FEFEFE"/>
<path d="M640.897 738.544C639.013 742.656 635.724 740.475 633.203 740.555C630.776 740.633 632.078 738 631.955 736.602C631.74 734.144 631.894 731.653 631.895 729.176C631.897 723.798 634.056 722.338 639.363 723.67C641.44 724.191 640.852 725.513 640.873 726.668C640.941 730.465 640.898 734.265 640.897 738.544Z" fill="#FEFEFE"/>
<path d="M882.535 1125.99C880.469 1126.7 878.982 1126.66 879.017 1124.14C879.074 1120.03 879.086 1115.91 879.001 1111.8C878.967 1110.13 879.539 1109.4 881.247 1109.43C882.998 1109.47 882.911 1110.62 882.901 1111.8C882.861 1116.41 882.82 1121.01 882.535 1125.99Z" fill="#EAEBE1"/>
<path d="M893.483 1109.6C895.159 1114.58 894.148 1119.52 894.438 1124.4C894.52 1125.79 893.851 1126.51 892.371 1126.53C890.889 1126.54 890.858 1125.52 890.852 1124.54C890.821 1120.08 890.87 1115.62 890.821 1111.16C890.801 1109.42 891.861 1109.38 893.483 1109.6Z" fill="#EAEBE1"/>
<path d="M1118.64 1112.53C1118.59 1110.74 1118.51 1109.41 1120.55 1109.48C1121.99 1109.54 1122.03 1110.45 1122.03 1111.48C1122.03 1115.77 1122.05 1120.06 1122.01 1124.35C1122.01 1125.3 1122.06 1126.39 1120.61 1126.46C1119.08 1126.53 1118.62 1125.71 1118.63 1124.33C1118.66 1120.53 1118.64 1116.74 1118.64 1112.53Z" fill="#FAFAF7"/>
<path d="M930.369 1122.71C934.29 1122.71 937.763 1122.69 941.235 1122.73C942.323 1122.74 943.649 1122.47 943.664 1124.31C943.678 1126.1 942.719 1126.55 941.156 1126.54C937.353 1126.5 933.55 1126.5 929.747 1126.54C928.401 1126.56 927.535 1126.21 927.39 1124.7C927.194 1122.66 928.536 1122.68 930.369 1122.71Z" fill="#EAEBE1"/>
<path d="M940.318 1101.44C942.031 1101.51 943.553 1101.16 943.592 1103.24C943.627 1105.1 942.262 1104.82 941.17 1104.84C937.348 1104.87 933.526 1104.85 929.704 1104.85C928.479 1104.86 927.342 1104.85 927.453 1103.09C927.559 1101.39 928.711 1101.43 929.916 1101.43C933.239 1101.45 936.563 1101.44 940.318 1101.44Z" fill="#FAFAF7"/>
<path d="M1042.74 1114.19C1043.32 1112.36 1041.31 1109.55 1044.46 1109.59C1047.54 1109.64 1045.88 1112.36 1046.06 1113.85C1046.47 1117.25 1046.48 1120.68 1042.74 1123.2C1042.74 1120.19 1042.74 1117.4 1042.74 1114.19Z" fill="#FAFAF7"/>
<path d="M942.636 1112.99C942.668 1114.18 943.063 1115.44 942.054 1115.49C937.63 1115.69 933.197 1115.7 928.767 1115.71C927.372 1115.72 927.35 1114.61 927.413 1113.6C927.487 1112.41 928.185 1111.83 929.36 1111.92C933.741 1112.25 938.19 1111.17 942.636 1112.99Z" fill="#EAEBE1"/>
<path d="M1125.86 1101.46C1127.6 1101.55 1129.17 1101.06 1129.17 1103.22C1129.18 1105.05 1127.9 1104.83 1126.76 1104.83C1122.44 1104.85 1118.12 1104.84 1113.79 1104.84C1112.62 1104.83 1111.4 1104.92 1111.46 1103.14C1111.51 1101.42 1112.7 1101.46 1113.89 1101.46C1117.71 1101.46 1121.54 1101.46 1125.86 1101.46Z" fill="#FEFEFE"/>
<path d="M1047.9 1126.53C1044.33 1123.98 1048 1123.1 1048.89 1122.92C1051.29 1122.44 1053.84 1122.75 1056.33 1122.72C1057.66 1122.69 1057.99 1123.39 1057.94 1124.58C1057.89 1125.73 1057.54 1126.5 1056.25 1126.5C1053.6 1126.51 1050.94 1126.52 1047.9 1126.53Z" fill="#EAEBE1"/>
<path d="M509.685 1054.73C509.705 1055.97 507.649 1058.46 511.503 1056.97C515.149 1055.55 518.817 1054.2 522.864 1052.86C517.961 1056.3 511.826 1057.59 505.445 1060.49C507.116 1058.08 508.268 1056.43 509.685 1054.73Z" fill="#EAEBE1"/>
<path d="M421.815 1154.26C421.378 1154.03 421.255 1153.68 420.98 1152.81C424.429 1150.08 428.029 1147.87 432.361 1145.21C429.117 1149.28 425.487 1151.55 421.815 1154.26Z" fill="#E4961A"/>
<path d="M320.523 382.204C324.883 381.615 329.573 381.461 334.559 382.379C330.192 382.579 325.524 382.497 320.523 382.204Z" fill="#EAEBE1"/>
<path d="M408.531 385.194C412.888 384.62 417.576 384.461 422.559 385.377C418.195 385.575 413.53 385.49 408.531 385.194Z" fill="#EAEBE1"/>
<path d="M467.527 387.196C471.548 386.638 475.898 386.454 480.546 387.356C476.519 387.558 472.188 387.483 467.527 387.196Z" fill="#EAEBE1"/>
<path d="M350.508 383.224C354.536 382.612 358.895 382.464 363.553 383.367C359.517 383.577 355.179 383.506 350.508 383.224Z" fill="#EAEBE1"/>
<path d="M531.195 1048.97C534.055 1045.46 538.879 1045.03 543.087 1042.7C540.251 1046.22 535.251 1046.38 531.195 1048.97Z" fill="#EAEBE1"/>
<path d="M379.516 384.211C383.539 383.619 387.893 383.465 392.547 384.356C388.516 384.563 384.182 384.492 379.516 384.211Z" fill="#EAEBE1"/>
<path d="M438.523 386.206C442.548 385.634 446.902 385.454 451.553 386.364C447.522 386.568 443.188 386.494 438.523 386.206Z" fill="#EAEBE1"/>
<path d="M907.139 1123.1C906.761 1124.3 907.411 1126.03 905.279 1124.8C903.608 1123.84 902.157 1122.76 902.18 1120.75C902.195 1119.45 903.848 1119.55 904.446 1119.71C905.882 1120.1 907.48 1120.73 907.139 1123.1Z" fill="#EAEBE1"/>
<path d="M539.516 390.202C542.555 389.661 545.912 389.432 549.561 390.38C546.52 390.581 543.177 390.499 539.516 390.202Z" fill="#EAEBE1"/>
<path d="M517.531 389.17C519.905 388.697 522.582 388.442 525.55 389.356C523.164 390.106 520.5 389.729 517.531 389.17Z" fill="#EAEBE1"/>
<path d="M882.893 1103.15C882.326 1105.9 880.61 1104.98 879.495 1104.42C878.61 1103.98 878.726 1102.42 879.466 1101.94C880.636 1101.18 882.228 1100.54 882.893 1103.15Z" fill="#EAEBE1"/>
<path d="M495.496 388.201C497.559 387.716 499.913 387.447 502.556 388.375C500.483 389.13 498.132 388.844 495.496 388.201Z" fill="#EAEBE1"/>
<path d="M902.16 452.508C901.753 452.344 901.563 452.104 901.086 451.827C902.339 450.461 903.802 449.196 905.547 447.816C905.62 449.92 903.605 450.833 902.16 452.508Z" fill="#E52D1A"/>
<path d="M1045.7 1104.44C1044.02 1104.87 1042.61 1105.1 1042.77 1102.98C1042.84 1102.01 1043.26 1101.53 1044.25 1101.48C1046.35 1101.36 1046.12 1102.77 1045.7 1104.44Z" fill="#FEFEFE"/>
<path d="M892.098 1101.51C894.567 1101.57 894.681 1102.89 894.034 1104.2C893.812 1104.65 892.385 1104.99 891.845 1104.72C890.275 1103.92 890.582 1102.69 892.098 1101.51Z" fill="#FEFEFE"/>
<path d="M543.98 1042.11C544.141 1041.71 544.52 1041.23 545.14 1040.73C544.987 1041.15 544.593 1041.59 543.98 1042.11Z" fill="#EAEBE1"/>
<path d="M434.938 1143.59C435.01 1144.02 434.961 1144.04 434.938 1143.59Z" fill="#E4961A"/>
<path d="M844.73 626.833C844.754 626.988 844.692 627.307 844.629 627.626C844.633 627.416 844.638 627.206 844.73 626.833Z" fill="#E7411B"/>
<path d="M1080.84 389.709C1081.34 390.201 1080.82 390.872 1080.6 390.845C1079.85 390.751 1080.08 390.265 1080.68 389.813C1080.92 389.771 1080.87 389.728 1080.84 389.709Z" fill="#FDD600"/>
<path d="M437.928 1141.81C437.936 1141.87 437.92 1141.76 437.928 1141.81Z" fill="#E4961A"/>
<path d="M846.143 625.711C845.822 625.293 845.88 624.965 846.094 624.438C846.398 624.349 846.546 624.46 846.894 624.762C846.904 625.235 846.712 625.518 846.143 625.711Z" fill="#E7411B"/>
<path d="M912.389 557.169C912.41 557.133 912.368 557.206 912.389 557.169Z" fill="#E8681B"/>
<path d="M909.897 443.678C909.918 443.75 909.876 443.607 909.897 443.678Z" fill="#E52D1A"/>
<path d="M913.866 554.721C913.768 554.976 913.666 555.497 913.624 555.492C913.126 555.436 913.078 555.196 913.703 554.828C913.938 554.783 913.889 554.743 913.866 554.721Z" fill="#E8681B"/>
<path d="M908.941 444.447C909.241 444.593 909.555 444.443 909.893 444.021C909.918 443.75 909.899 443.746 909.898 443.736C909.582 443.868 909.269 444.01 908.941 444.447Z" fill="#E52D1A"/>
<path d="M437.897 1141.76C437.899 1141.76 438.069 1141.68 438.069 1141.68C438.069 1141.68 437.847 1141.64 437.883 1141.7C437.919 1141.76 437.894 1141.77 437.897 1141.76Z" fill="#E4961A"/>
<path d="M407.859 630.797C407.967 630.793 408.093 630.766 408.219 630.738C408.163 630.827 408.106 630.915 407.981 630.865C407.912 630.725 407.878 630.774 407.859 630.797Z" fill="#E52D1A"/>
<path d="M908.889 444.714C908.582 444.826 908.338 445.028 908.039 445.52C908.215 445.594 908.475 445.405 908.816 444.958C908.929 444.743 908.895 444.732 908.889 444.714Z" fill="#E52D1A"/>
<path d="M907.872 445.696C907.732 445.985 907.543 446.252 907.106 446.612C907.097 446.481 907.316 446.253 907.75 445.902C907.926 445.741 907.883 445.718 907.872 445.696Z" fill="#E52D1A"/>
<path d="M419.552 1152.81C419.577 1153.06 419.348 1153.29 418.865 1153.5C418.84 1153.25 419.069 1153.02 419.552 1152.81Z" fill="#E4961A"/>
<path d="M1260.6 245.325C1260.91 245.329 1261.2 245.325 1261.5 245.321C1261.5 245.775 1261.3 245.879 1260.74 245.452C1260.57 245.27 1260.59 245.316 1260.6 245.325Z" fill="#FDD600"/>
<path d="M905.88 447.75C906.086 447.503 906.279 447.239 906.695 446.861C906.918 446.747 906.874 446.718 906.858 446.696C906.69 446.997 906.539 447.32 906.11 447.673C905.831 447.702 905.867 447.731 905.88 447.75Z" fill="#E52D1A"/>
<path d="M1056.66 449.618C1056.76 449.795 1056.91 449.977 1057.01 450.184C1057.03 450.227 1056.86 450.364 1056.78 450.458C1056.66 450.311 1056.53 450.163 1056.58 449.84C1056.75 449.664 1056.69 449.631 1056.66 449.618Z" fill="#FDD600"/>
<path d="M844.871 626.73C845.012 626.426 845.134 626.101 845.509 625.698C845.762 625.621 845.879 625.737 845.937 625.796C845.796 626.17 845.596 626.485 845.106 626.735C844.816 626.669 844.853 626.709 844.871 626.73Z" fill="#E7411B"/>
<path d="M409.946 1061.84C409.952 1061.86 409.916 1061.65 409.914 1061.73C409.912 1061.8 409.94 1061.82 409.946 1061.84Z" fill="#E7771B"/>
<path d="M1131.55 422.339C1131.98 421.891 1132.74 421.235 1132.29 422.784C1131.94 422.778 1131.82 422.658 1131.55 422.339Z" fill="#E4961A"/>
<path d="M413.891 936.737C413.713 937.004 413.553 937.293 413.176 937.681C413.1 937.442 413.241 937.104 413.667 936.784C413.951 936.801 413.909 936.76 413.891 936.737Z" fill="#E51B1D"/>
<path d="M412.907 937.739C412.897 937.719 412.707 938.055 412.707 938.055C412.707 938.055 412.773 937.888 412.865 937.834C412.957 937.779 412.918 937.758 412.907 937.739Z" fill="#E51B1D"/>
<path d="M535.386 1056.27C535.411 1056.28 535.361 1056.26 535.386 1056.27Z" fill="#E68E1B"/>
<path d="M532.932 1057.79C532.994 1057.59 533.013 1057.37 533.082 1057.16C533.096 1057.12 533.302 1057.15 533.42 1057.14C533.4 1057.32 533.38 1057.5 533.109 1057.7C532.857 1057.72 532.907 1057.77 532.932 1057.79Z" fill="#E68E1B"/>
<path d="M507.742 660.615C507.806 659.976 507.883 659.181 508.655 659.492C508.822 659.559 508.717 660.302 508.593 660.964C508.29 661.069 508.131 660.942 507.742 660.615Z" fill="black"/>
<path d="M524.609 644.45C524.775 644.158 525.099 644.034 525.423 643.91C525.449 644.152 525.475 644.393 525.3 644.787C525.099 644.94 524.768 644.618 524.609 644.45Z" fill="black"/>
<path d="M456.922 671.769C457.067 671.427 457.374 671.251 457.681 671.075C457.714 671.324 457.747 671.572 457.609 672.028C457.436 672.235 457.084 671.934 456.922 671.769Z" fill="black"/>
<path d="M571.809 672.661C571.94 672.281 572.246 672.076 572.553 671.871C572.6 672.153 572.647 672.436 572.519 672.948C572.343 673.177 571.984 672.836 571.809 672.661Z" fill="black"/>
<path d="M591.628 688.01C591.379 687.8 591.299 687.428 591.219 687.057C591.439 687.056 591.659 687.056 592.003 687.287C592.127 687.518 591.797 687.849 591.628 688.01Z" fill="black"/>
<path fill-rule="evenodd" clip-rule="evenodd" d="M449.883 736.25C432.081 756.329 432.996 791.165 453.549 809.107C459.517 814.723 466.385 818.151 473.967 819.354C478.31 820.043 478.87 821.193 478.055 825.204C477.532 827.774 477.658 830.477 477.784 833.178C477.838 834.341 477.893 835.504 477.895 836.656C477.903 840.351 479.93 840.067 481.916 839.788C482.703 839.677 483.483 839.568 484.128 839.707C486.471 840.21 488.219 839.878 487.982 836.542C487.788 833.813 487.826 831.07 487.864 828.325C487.888 826.571 487.912 824.817 487.876 823.066C487.83 820.829 488.518 819.949 490.952 819.686C504.047 818.271 513.487 810.991 520.843 800.52C527.775 790.654 529.494 779.494 528.885 767.808C527.908 749.075 520.318 734.483 502.643 726.223C484.608 717.795 462.604 721.902 449.883 736.25ZM447.753 778.144C450.876 800.398 473.285 818.949 498.304 806.388C503.831 803.568 508.097 799.601 511.168 794.942C521.052 779.949 520.999 764.498 512.411 748.747C501.04 727.893 473.433 726.565 459.269 741.028C449.235 751.274 445.718 763.649 447.753 778.144Z" fill="#FCFCFC"/>
<path d="M621.106 656.669C618.02 656.523 616.44 655.204 613.371 650.179C618.003 650.05 619.489 653.548 621.106 656.669Z" fill="black"/>
<path d="M609.905 645.576C606.849 647.914 606.521 644.716 605.449 643.273C608.35 641.47 608.827 644.005 609.905 645.576Z" fill="black"/>
<path d="M610.865 646.562C610.238 647.221 609.822 647.116 609.617 646.256C610.146 646 610.561 646.103 610.865 646.562Z" fill="black"/>
<path d="M611.865 647.562C611.239 648.222 610.823 648.117 610.617 647.257C611.146 647 611.561 647.102 611.865 647.562Z" fill="black"/>
<path d="M612.865 648.562C612.238 649.221 611.822 649.115 611.617 648.255C612.147 647.999 612.562 648.102 612.865 648.562Z" fill="black"/>
<path d="M613.865 649.562C613.238 650.221 612.822 650.116 612.617 649.257C613.147 649 613.562 649.102 613.865 649.562Z" fill="black"/>
<path fill-rule="evenodd" clip-rule="evenodd" d="M1021.25 1100.8C1014.46 1102.99 1010.78 1110.62 1013.1 1118.26C1016.32 1123.68 1020.18 1127.78 1026.76 1126.28C1033.52 1124.75 1037.88 1116.61 1035.91 1109.99C1033.88 1103.13 1027.14 1098.91 1021.25 1100.8ZM1022.44 1122.53C1015.12 1118.63 1013.64 1109.94 1019.26 1105.87C1023.09 1103.1 1028.2 1103.67 1030.79 1107.17C1034.08 1111.63 1033.46 1118.15 1029.33 1120.87C1027.41 1122.13 1025.31 1123.27 1022.44 1122.53ZM1025.32 1112.13C1026.56 1113.7 1025.75 1114.35 1024.96 1114.99C1024.74 1115.16 1024.53 1115.33 1024.36 1115.52C1024.18 1115.33 1023.97 1115.15 1023.76 1114.98C1023.29 1114.58 1022.82 1114.19 1022.76 1113.74C1022.59 1112.28 1023.35 1111.39 1025.32 1112.13Z" fill="#EAEBE1"/>
</svg>
